<?xml version="1.0" encoding="UTF-8" standalone="no"?>
<!DOCTYPE svg PUBLIC "-//W3C//DTD SVG 1.1//EN"
 "http://www.w3.org/Graphics/SVG/1.1/DTD/svg11.dtd">
<!-- Generated by graphviz version 7.1.0 (20230121.1956)
 -->
<!-- Title: G Pages: 1 -->
<svg width="4760pt" height="2612pt"
 viewBox="0.00 0.00 4760.00 2612.10" xmlns="http://www.w3.org/2000/svg" xmlns:xlink="http://www.w3.org/1999/xlink">
<g id="graph0" class="graph" transform="scale(1 1) rotate(0) translate(4 2608.1)">
<title>G</title>
<polygon fill="white" stroke="none" points="-4,4 -4,-2608.1 4756,-2608.1 4756,4 -4,4"/>
<!-- n2772 -->
<g id="node1" class="node">
<title>n2772</title>
<ellipse fill="lightgrey" stroke="black" cx="2511" cy="-2474" rx="36" ry="36"/>
<text text-anchor="middle" x="2511" y="-2471.5" font-family="Helvetica,sans-Serif" font-size="10.00">Inicio</text>
</g>
<!-- n18050 -->
<g id="node2" class="node">
<title>n18050</title>
<ellipse fill="lightgrey" stroke="black" cx="2511" cy="-2083" rx="36" ry="36"/>
<text text-anchor="middle" x="2511" y="-2080.5" font-family="Helvetica,sans-Serif" font-size="10.00">Sentencia</text>
</g>
<!-- n2772&#45;&gt;n18050 -->
<g id="edge1" class="edge">
<title>n2772&#45;&gt;n18050</title>
<path fill="none" stroke="black" d="M2511,-2437.79C2511,-2367.38 2511,-2209.23 2511,-2130.44"/>
<polygon fill="black" stroke="black" points="2514.5,-2130.92 2511,-2120.92 2507.5,-2130.92 2514.5,-2130.92"/>
</g>
<!-- n29314 -->
<g id="node3" class="node">
<title>n29314</title>
<ellipse fill="lightgrey" stroke="black" cx="531" cy="-1693" rx="36" ry="36"/>
<text text-anchor="middle" x="531" y="-1690.5" font-family="Helvetica,sans-Serif" font-size="10.00">Declaración</text>
</g>
<!-- n18050&#45;&gt;n29314 -->
<g id="edge2" class="edge">
<title>n18050&#45;&gt;n29314</title>
<path fill="none" stroke="black" d="M2475.79,-2075.1C2236.41,-2028.19 849.25,-1756.36 577.26,-1703.07"/>
<polygon fill="black" stroke="black" points="578.21,-1699.69 567.73,-1701.2 576.87,-1706.55 578.21,-1699.69"/>
</g>
<!-- n67242 -->
<g id="node15" class="node">
<title>n67242</title>
<ellipse fill="lightgrey" stroke="black" cx="1386" cy="-1693" rx="36" ry="36"/>
<text text-anchor="middle" x="1386" y="-1690.5" font-family="Helvetica,sans-Serif" font-size="10.00">Declaración</text>
</g>
<!-- n18050&#45;&gt;n67242 -->
<g id="edge14" class="edge">
<title>n18050&#45;&gt;n67242</title>
<path fill="none" stroke="black" d="M2477.02,-2070.28C2314.32,-2014.17 1615.05,-1773 1430.7,-1709.42"/>
<polygon fill="black" stroke="black" points="1432.08,-1706.19 1421.48,-1706.24 1429.79,-1712.81 1432.08,-1706.19"/>
</g>
<!-- n43483 -->
<g id="node27" class="node">
<title>n43483</title>
<ellipse fill="lightgrey" stroke="black" cx="1926" cy="-1693" rx="36" ry="36"/>
<text text-anchor="middle" x="1926" y="-1690.5" font-family="Helvetica,sans-Serif" font-size="10.00">Declaración</text>
</g>
<!-- n18050&#45;&gt;n43483 -->
<g id="edge26" class="edge">
<title>n18050&#45;&gt;n43483</title>
<path fill="none" stroke="black" d="M2481.19,-2062.23C2383.77,-1997.62 2074.86,-1792.73 1965.13,-1719.96"/>
<polygon fill="black" stroke="black" points="1967.28,-1717.18 1957.02,-1714.57 1963.41,-1723.02 1967.28,-1717.18"/>
</g>
<!-- n48981 -->
<g id="node32" class="node">
<title>n48981</title>
<ellipse fill="lightgrey" stroke="black" cx="2331" cy="-1693" rx="36" ry="36"/>
<text text-anchor="middle" x="2331" y="-1690.5" font-family="Helvetica,sans-Serif" font-size="10.00">Función</text>
</g>
<!-- n18050&#45;&gt;n48981 -->
<g id="edge31" class="edge">
<title>n18050&#45;&gt;n48981</title>
<path fill="none" stroke="black" d="M2496.12,-2049.92C2463.71,-1980.07 2386.78,-1814.23 2350.53,-1736.1"/>
<polygon fill="black" stroke="black" points="2353.92,-1735.09 2346.54,-1727.49 2347.57,-1738.04 2353.92,-1735.09"/>
</g>
<!-- n31124 -->
<g id="node41" class="node">
<title>n31124</title>
<ellipse fill="lightgrey" stroke="black" cx="2691" cy="-1693" rx="36" ry="36"/>
<text text-anchor="middle" x="2691" y="-1690.5" font-family="Helvetica,sans-Serif" font-size="10.00">Función</text>
</g>
<!-- n18050&#45;&gt;n31124 -->
<g id="edge40" class="edge">
<title>n18050&#45;&gt;n31124</title>
<path fill="none" stroke="black" d="M2525.88,-2049.92C2558.29,-1980.07 2635.22,-1814.23 2671.47,-1736.1"/>
<polygon fill="black" stroke="black" points="2674.43,-1738.04 2675.46,-1727.49 2668.08,-1735.09 2674.43,-1738.04"/>
</g>
<!-- n38395 -->
<g id="node53" class="node">
<title>n38395</title>
<ellipse fill="lightgrey" stroke="black" cx="3186" cy="-1693" rx="36" ry="36"/>
<text text-anchor="middle" x="3186" y="-1690.5" font-family="Helvetica,sans-Serif" font-size="10.00">Inserción lista</text>
</g>
<!-- n18050&#45;&gt;n38395 -->
<g id="edge52" class="edge">
<title>n18050&#45;&gt;n38395</title>
<path fill="none" stroke="black" d="M2542.2,-2064.06C2652.16,-2000.86 3021.64,-1788.48 3145.29,-1717.4"/>
<polygon fill="black" stroke="black" points="3146.89,-1720.52 3153.82,-1712.5 3143.4,-1714.45 3146.89,-1720.52"/>
</g>
<!-- n3733 -->
<g id="node60" class="node">
<title>n3733</title>
<ellipse fill="lightgrey" stroke="black" cx="3726" cy="-1693" rx="36" ry="36"/>
<text text-anchor="middle" x="3726" y="-1690.5" font-family="Helvetica,sans-Serif" font-size="10.00">Inserción lista</text>
</g>
<!-- n18050&#45;&gt;n3733 -->
<g id="edge59" class="edge">
<title>n18050&#45;&gt;n3733</title>
<path fill="none" stroke="black" d="M2545.41,-2071.01C2717.68,-2016 3485.96,-1770.65 3680.91,-1708.4"/>
<polygon fill="black" stroke="black" points="3681.7,-1711.82 3690.16,-1705.44 3679.57,-1705.15 3681.7,-1711.82"/>
</g>
<!-- n62206 -->
<g id="node67" class="node">
<title>n62206</title>
<ellipse fill="lightgrey" stroke="black" cx="4356" cy="-1693" rx="36" ry="36"/>
<text text-anchor="middle" x="4356" y="-1690.5" font-family="Helvetica,sans-Serif" font-size="10.00">Modificación lista</text>
</g>
<!-- n18050&#45;&gt;n62206 -->
<g id="edge66" class="edge">
<title>n18050&#45;&gt;n62206</title>
<path fill="none" stroke="black" d="M2546.21,-2074.6C2775.09,-2026.46 4050.38,-1758.27 4309.9,-1703.69"/>
<polygon fill="black" stroke="black" points="4310.25,-1707.2 4319.31,-1701.71 4308.81,-1700.35 4310.25,-1707.2"/>
</g>
<!-- n911 -->
<g id="node4" class="node">
<title>n911</title>
<ellipse fill="lightgrey" stroke="black" cx="36" cy="-1302" rx="36" ry="36"/>
<text text-anchor="middle" x="36" y="-1299.5" font-family="Helvetica,sans-Serif" font-size="10.00">list</text>
</g>
<!-- n29314&#45;&gt;n911 -->
<g id="edge3" class="edge">
<title>n29314&#45;&gt;n911</title>
<path fill="none" stroke="black" d="M502.97,-1669.97C418.75,-1603.79 167.94,-1406.69 72.99,-1332.07"/>
<polygon fill="black" stroke="black" points="75.25,-1329.39 65.22,-1325.96 70.92,-1334.89 75.25,-1329.39"/>
</g>
<!-- n49770 -->
<g id="node5" class="node">
<title>n49770</title>
<ellipse fill="lightgrey" stroke="black" cx="126" cy="-1302" rx="36" ry="36"/>
<text text-anchor="middle" x="126" y="-1299.5" font-family="Helvetica,sans-Serif" font-size="10.00">&lt;</text>
</g>
<!-- n29314&#45;&gt;n49770 -->
<g id="edge4" class="edge">
<title>n29314&#45;&gt;n49770</title>
<path fill="none" stroke="black" d="M505.36,-1667.37C435.06,-1599.85 239.27,-1411.79 159.98,-1335.64"/>
<polygon fill="black" stroke="black" points="162.52,-1333.22 152.88,-1328.82 157.67,-1338.27 162.52,-1333.22"/>
</g>
<!-- n13207 -->
<g id="node6" class="node">
<title>n13207</title>
<ellipse fill="lightgrey" stroke="black" cx="216" cy="-1302" rx="36" ry="36"/>
<text text-anchor="middle" x="216" y="-1299.5" font-family="Helvetica,sans-Serif" font-size="10.00">String</text>
</g>
<!-- n29314&#45;&gt;n13207 -->
<g id="edge5" class="edge">
<title>n29314&#45;&gt;n13207</title>
<path fill="none" stroke="black" d="M508.6,-1664.34C452.88,-1595.53 308.06,-1416.69 245.5,-1339.43"/>
<polygon fill="black" stroke="black" points="248.25,-1337.27 239.24,-1331.7 242.81,-1341.67 248.25,-1337.27"/>
</g>
<!-- n78672 -->
<g id="node7" class="node">
<title>n78672</title>
<ellipse fill="lightgrey" stroke="black" cx="306" cy="-1302" rx="36" ry="36"/>
<text text-anchor="middle" x="306" y="-1299.5" font-family="Helvetica,sans-Serif" font-size="10.00">&gt;</text>
</g>
<!-- n29314&#45;&gt;n78672 -->
<g id="edge6" class="edge">
<title>n29314&#45;&gt;n78672</title>
<path fill="none" stroke="black" d="M513.34,-1661.48C473.06,-1591.83 374.36,-1421.19 329.22,-1343.14"/>
<polygon fill="black" stroke="black" points="332.52,-1341.87 324.49,-1334.96 326.46,-1345.37 332.52,-1341.87"/>
</g>
<!-- n63160 -->
<g id="node8" class="node">
<title>n63160</title>
<ellipse fill="lightgrey" stroke="black" cx="396" cy="-1302" rx="36" ry="36"/>
<text text-anchor="middle" x="396" y="-1299.5" font-family="Helvetica,sans-Serif" font-size="10.00">listas</text>
</g>
<!-- n29314&#45;&gt;n63160 -->
<g id="edge7" class="edge">
<title>n29314&#45;&gt;n63160</title>
<path fill="none" stroke="black" d="M519.37,-1658.5C495,-1588.27 438.56,-1425.65 411.29,-1347.07"/>
<polygon fill="black" stroke="black" points="414.73,-1346.29 408.14,-1337.99 408.12,-1348.58 414.73,-1346.29"/>
</g>
<!-- n38721 -->
<g id="node9" class="node">
<title>n38721</title>
<ellipse fill="lightgrey" stroke="black" cx="486" cy="-1302" rx="36" ry="36"/>
<text text-anchor="middle" x="486" y="-1299.5" font-family="Helvetica,sans-Serif" font-size="10.00">=</text>
</g>
<!-- n29314&#45;&gt;n38721 -->
<g id="edge8" class="edge">
<title>n29314&#45;&gt;n38721</title>
<path fill="none" stroke="black" d="M526.93,-1656.79C518.77,-1586.29 500.44,-1427.82 491.34,-1349.14"/>
<polygon fill="black" stroke="black" points="494.86,-1349.16 490.24,-1339.63 487.91,-1349.97 494.86,-1349.16"/>
</g>
<!-- n69843 -->
<g id="node10" class="node">
<title>n69843</title>
<ellipse fill="lightgrey" stroke="black" cx="576" cy="-1302" rx="36" ry="36"/>
<text text-anchor="middle" x="576" y="-1299.5" font-family="Helvetica,sans-Serif" font-size="10.00">new</text>
</g>
<!-- n29314&#45;&gt;n69843 -->
<g id="edge9" class="edge">
<title>n29314&#45;&gt;n69843</title>
<path fill="none" stroke="black" d="M535.07,-1656.79C543.23,-1586.29 561.56,-1427.82 570.66,-1349.14"/>
<polygon fill="black" stroke="black" points="574.09,-1349.97 571.76,-1339.63 567.14,-1349.16 574.09,-1349.97"/>
</g>
<!-- n78561 -->
<g id="node11" class="node">
<title>n78561</title>
<ellipse fill="lightgrey" stroke="black" cx="666" cy="-1302" rx="36" ry="36"/>
<text text-anchor="middle" x="666" y="-1299.5" font-family="Helvetica,sans-Serif" font-size="10.00">list</text>
</g>
<!-- n29314&#45;&gt;n78561 -->
<g id="edge10" class="edge">
<title>n29314&#45;&gt;n78561</title>
<path fill="none" stroke="black" d="M542.63,-1658.5C567,-1588.27 623.44,-1425.65 650.71,-1347.07"/>
<polygon fill="black" stroke="black" points="653.88,-1348.58 653.86,-1337.99 647.27,-1346.29 653.88,-1348.58"/>
</g>
<!-- n75678 -->
<g id="node12" class="node">
<title>n75678</title>
<ellipse fill="lightgrey" stroke="black" cx="756" cy="-1302" rx="36" ry="36"/>
<text text-anchor="middle" x="756" y="-1299.5" font-family="Helvetica,sans-Serif" font-size="10.00">&lt;</text>
</g>
<!-- n29314&#45;&gt;n75678 -->
<g id="edge11" class="edge">
<title>n29314&#45;&gt;n75678</title>
<path fill="none" stroke="black" d="M548.66,-1661.48C588.94,-1591.83 687.64,-1421.19 732.78,-1343.14"/>
<polygon fill="black" stroke="black" points="735.54,-1345.37 737.51,-1334.96 729.48,-1341.87 735.54,-1345.37"/>
</g>
<!-- n31275 -->
<g id="node13" class="node">
<title>n31275</title>
<ellipse fill="lightgrey" stroke="black" cx="846" cy="-1302" rx="36" ry="36"/>
<text text-anchor="middle" x="846" y="-1299.5" font-family="Helvetica,sans-Serif" font-size="10.00">String</text>
</g>
<!-- n29314&#45;&gt;n31275 -->
<g id="edge12" class="edge">
<title>n29314&#45;&gt;n31275</title>
<path fill="none" stroke="black" d="M553.4,-1664.34C609.12,-1595.53 753.94,-1416.69 816.5,-1339.43"/>
<polygon fill="black" stroke="black" points="819.19,-1341.67 822.76,-1331.7 813.75,-1337.27 819.19,-1341.67"/>
</g>
<!-- n28839 -->
<g id="node14" class="node">
<title>n28839</title>
<ellipse fill="lightgrey" stroke="black" cx="936" cy="-1302" rx="36" ry="36"/>
<text text-anchor="middle" x="936" y="-1299.5" font-family="Helvetica,sans-Serif" font-size="10.00">&gt;</text>
</g>
<!-- n29314&#45;&gt;n28839 -->
<g id="edge13" class="edge">
<title>n29314&#45;&gt;n28839</title>
<path fill="none" stroke="black" d="M556.64,-1667.37C626.94,-1599.85 822.73,-1411.79 902.02,-1335.64"/>
<polygon fill="black" stroke="black" points="904.33,-1338.27 909.12,-1328.82 899.48,-1333.22 904.33,-1338.27"/>
</g>
<!-- n56030 -->
<g id="node16" class="node">
<title>n56030</title>
<ellipse fill="lightgrey" stroke="black" cx="1026" cy="-1302" rx="36" ry="36"/>
<text text-anchor="middle" x="1026" y="-1299.5" font-family="Helvetica,sans-Serif" font-size="10.00">int</text>
</g>
<!-- n67242&#45;&gt;n56030 -->
<g id="edge15" class="edge">
<title>n67242&#45;&gt;n56030</title>
<path fill="none" stroke="black" d="M1361.82,-1665.87C1298.67,-1597.64 1128.79,-1414.07 1057.83,-1337.39"/>
<polygon fill="black" stroke="black" points="1060.46,-1335.09 1051.1,-1330.12 1055.33,-1339.84 1060.46,-1335.09"/>
</g>
<!-- n75916 -->
<g id="node17" class="node">
<title>n75916</title>
<ellipse fill="lightgrey" stroke="black" cx="1116" cy="-1302" rx="36" ry="36"/>
<text text-anchor="middle" x="1116" y="-1299.5" font-family="Helvetica,sans-Serif" font-size="10.00">[</text>
</g>
<!-- n67242&#45;&gt;n75916 -->
<g id="edge16" class="edge">
<title>n67242&#45;&gt;n75916</title>
<path fill="none" stroke="black" d="M1365.71,-1662.76C1317.6,-1593.46 1196.66,-1419.21 1142.71,-1341.48"/>
<polygon fill="black" stroke="black" points="1145.6,-1339.51 1137.02,-1333.29 1139.85,-1343.5 1145.6,-1339.51"/>
</g>
<!-- n35050 -->
<g id="node18" class="node">
<title>n35050</title>
<ellipse fill="lightgrey" stroke="black" cx="1206" cy="-1302" rx="36" ry="36"/>
<text text-anchor="middle" x="1206" y="-1299.5" font-family="Helvetica,sans-Serif" font-size="10.00">]</text>
</g>
<!-- n67242&#45;&gt;n35050 -->
<g id="edge17" class="edge">
<title>n67242&#45;&gt;n35050</title>
<path fill="none" stroke="black" d="M1371.12,-1659.84C1338.71,-1589.8 1261.78,-1423.54 1225.53,-1345.2"/>
<polygon fill="black" stroke="black" points="1228.91,-1344.18 1221.54,-1336.58 1222.56,-1347.12 1228.91,-1344.18"/>
</g>
<!-- n71488 -->
<g id="node19" class="node">
<title>n71488</title>
<ellipse fill="lightgrey" stroke="black" cx="1296" cy="-1302" rx="36" ry="36"/>
<text text-anchor="middle" x="1296" y="-1299.5" font-family="Helvetica,sans-Serif" font-size="10.00">vectornumero</text>
</g>
<!-- n67242&#45;&gt;n71488 -->
<g id="edge18" class="edge">
<title>n67242&#45;&gt;n71488</title>
<path fill="none" stroke="black" d="M1378.01,-1657.48C1361.73,-1587.12 1324.72,-1427.15 1306.51,-1348.45"/>
<polygon fill="black" stroke="black" points="1309.97,-1347.87 1304.31,-1338.92 1303.15,-1349.45 1309.97,-1347.87"/>
</g>
<!-- n7768 -->
<g id="node20" class="node">
<title>n7768</title>
<ellipse fill="lightgrey" stroke="black" cx="1386" cy="-1302" rx="36" ry="36"/>
<text text-anchor="middle" x="1386" y="-1299.5" font-family="Helvetica,sans-Serif" font-size="10.00">=</text>
</g>
<!-- n67242&#45;&gt;n7768 -->
<g id="edge19" class="edge">
<title>n67242&#45;&gt;n7768</title>
<path fill="none" stroke="black" d="M1386,-1656.79C1386,-1586.38 1386,-1428.23 1386,-1349.44"/>
<polygon fill="black" stroke="black" points="1389.5,-1349.92 1386,-1339.92 1382.5,-1349.92 1389.5,-1349.92"/>
</g>
<!-- n27271 -->
<g id="node21" class="node">
<title>n27271</title>
<ellipse fill="lightgrey" stroke="black" cx="1476" cy="-1302" rx="36" ry="36"/>
<text text-anchor="middle" x="1476" y="-1299.5" font-family="Helvetica,sans-Serif" font-size="10.00">{</text>
</g>
<!-- n67242&#45;&gt;n27271 -->
<g id="edge20" class="edge">
<title>n67242&#45;&gt;n27271</title>
<path fill="none" stroke="black" d="M1393.99,-1657.48C1410.27,-1587.12 1447.28,-1427.15 1465.49,-1348.45"/>
<polygon fill="black" stroke="black" points="1468.85,-1349.45 1467.69,-1338.92 1462.03,-1347.87 1468.85,-1349.45"/>
</g>
<!-- n62572 -->
<g id="node22" class="node">
<title>n62572</title>
<ellipse fill="lightgrey" stroke="black" cx="1566" cy="-1302" rx="36" ry="36"/>
<text text-anchor="middle" x="1566" y="-1299.5" font-family="Helvetica,sans-Serif" font-size="10.00">Expresion</text>
</g>
<!-- n67242&#45;&gt;n62572 -->
<g id="edge21" class="edge">
<title>n67242&#45;&gt;n62572</title>
<path fill="none" stroke="black" d="M1400.88,-1659.84C1433.29,-1589.8 1510.22,-1423.54 1546.47,-1345.2"/>
<polygon fill="black" stroke="black" points="1549.44,-1347.12 1550.46,-1336.58 1543.09,-1344.18 1549.44,-1347.12"/>
</g>
<!-- n83572 -->
<g id="node26" class="node">
<title>n83572</title>
<ellipse fill="lightgrey" stroke="black" cx="1656" cy="-1302" rx="36" ry="36"/>
<text text-anchor="middle" x="1656" y="-1299.5" font-family="Helvetica,sans-Serif" font-size="10.00">}</text>
</g>
<!-- n67242&#45;&gt;n83572 -->
<g id="edge25" class="edge">
<title>n67242&#45;&gt;n83572</title>
<path fill="none" stroke="black" d="M1406.29,-1662.76C1454.4,-1593.46 1575.34,-1419.21 1629.29,-1341.48"/>
<polygon fill="black" stroke="black" points="1632.15,-1343.5 1634.98,-1333.29 1626.4,-1339.51 1632.15,-1343.5"/>
</g>
<!-- n26560 -->
<g id="node23" class="node">
<title>n26560</title>
<ellipse fill="lightgrey" stroke="black" cx="1476" cy="-911" rx="36" ry="36"/>
<text text-anchor="middle" x="1476" y="-908.5" font-family="Helvetica,sans-Serif" font-size="10.00">2020</text>
</g>
<!-- n62572&#45;&gt;n26560 -->
<g id="edge22" class="edge">
<title>n62572&#45;&gt;n26560</title>
<path fill="none" stroke="black" d="M1558.01,-1266.48C1541.73,-1196.12 1504.72,-1036.15 1486.51,-957.45"/>
<polygon fill="black" stroke="black" points="1489.97,-956.87 1484.31,-947.92 1483.15,-958.45 1489.97,-956.87"/>
</g>
<!-- n99787 -->
<g id="node24" class="node">
<title>n99787</title>
<ellipse fill="lightgrey" stroke="black" cx="1566" cy="-911" rx="36" ry="36"/>
<text text-anchor="middle" x="1566" y="-908.5" font-family="Helvetica,sans-Serif" font-size="10.00">2021</text>
</g>
<!-- n62572&#45;&gt;n99787 -->
<g id="edge23" class="edge">
<title>n62572&#45;&gt;n99787</title>
<path fill="none" stroke="black" d="M1566,-1265.79C1566,-1195.38 1566,-1037.23 1566,-958.44"/>
<polygon fill="black" stroke="black" points="1569.5,-958.92 1566,-948.92 1562.5,-958.92 1569.5,-958.92"/>
</g>
<!-- n39749 -->
<g id="node25" class="node">
<title>n39749</title>
<ellipse fill="lightgrey" stroke="black" cx="1656" cy="-911" rx="36" ry="36"/>
<text text-anchor="middle" x="1656" y="-908.5" font-family="Helvetica,sans-Serif" font-size="10.00">2022</text>
</g>
<!-- n62572&#45;&gt;n39749 -->
<g id="edge24" class="edge">
<title>n62572&#45;&gt;n39749</title>
<path fill="none" stroke="black" d="M1573.99,-1266.48C1590.27,-1196.12 1627.28,-1036.15 1645.49,-957.45"/>
<polygon fill="black" stroke="black" points="1648.85,-958.45 1647.69,-947.92 1642.03,-956.87 1648.85,-958.45"/>
</g>
<!-- n87651 -->
<g id="node28" class="node">
<title>n87651</title>
<ellipse fill="lightgrey" stroke="black" cx="1746" cy="-1302" rx="36" ry="36"/>
<text text-anchor="middle" x="1746" y="-1299.5" font-family="Helvetica,sans-Serif" font-size="10.00">double</text>
</g>
<!-- n43483&#45;&gt;n87651 -->
<g id="edge27" class="edge">
<title>n43483&#45;&gt;n87651</title>
<path fill="none" stroke="black" d="M1911.12,-1659.84C1878.71,-1589.8 1801.78,-1423.54 1765.53,-1345.2"/>
<polygon fill="black" stroke="black" points="1768.91,-1344.18 1761.54,-1336.58 1762.56,-1347.12 1768.91,-1344.18"/>
</g>
<!-- n22454 -->
<g id="node29" class="node">
<title>n22454</title>
<ellipse fill="lightgrey" stroke="black" cx="1836" cy="-1302" rx="36" ry="36"/>
<text text-anchor="middle" x="1836" y="-1299.5" font-family="Helvetica,sans-Serif" font-size="10.00">dinero</text>
</g>
<!-- n43483&#45;&gt;n22454 -->
<g id="edge28" class="edge">
<title>n43483&#45;&gt;n22454</title>
<path fill="none" stroke="black" d="M1918.01,-1657.48C1901.73,-1587.12 1864.72,-1427.15 1846.51,-1348.45"/>
<polygon fill="black" stroke="black" points="1849.97,-1347.87 1844.31,-1338.92 1843.15,-1349.45 1849.97,-1347.87"/>
</g>
<!-- n16046 -->
<g id="node30" class="node">
<title>n16046</title>
<ellipse fill="lightgrey" stroke="black" cx="1926" cy="-1302" rx="36" ry="36"/>
<text text-anchor="middle" x="1926" y="-1299.5" font-family="Helvetica,sans-Serif" font-size="10.00">=</text>
</g>
<!-- n43483&#45;&gt;n16046 -->
<g id="edge29" class="edge">
<title>n43483&#45;&gt;n16046</title>
<path fill="none" stroke="black" d="M1926,-1656.79C1926,-1586.38 1926,-1428.23 1926,-1349.44"/>
<polygon fill="black" stroke="black" points="1929.5,-1349.92 1926,-1339.92 1922.5,-1349.92 1929.5,-1349.92"/>
</g>
<!-- n87094 -->
<g id="node31" class="node">
<title>n87094</title>
<ellipse fill="lightgrey" stroke="black" cx="2016" cy="-1302" rx="36" ry="36"/>
<text text-anchor="middle" x="2016" y="-1299.5" font-family="Helvetica,sans-Serif" font-size="10.00">15.89</text>
</g>
<!-- n43483&#45;&gt;n87094 -->
<g id="edge30" class="edge">
<title>n43483&#45;&gt;n87094</title>
<path fill="none" stroke="black" d="M1933.99,-1657.48C1950.27,-1587.12 1987.28,-1427.15 2005.49,-1348.45"/>
<polygon fill="black" stroke="black" points="2008.85,-1349.45 2007.69,-1338.92 2002.03,-1347.87 2008.85,-1349.45"/>
</g>
<!-- n71094 -->
<g id="node33" class="node">
<title>n71094</title>
<ellipse fill="lightgrey" stroke="black" cx="2106" cy="-1302" rx="36" ry="36"/>
<text text-anchor="middle" x="2106" y="-1299.5" font-family="Helvetica,sans-Serif" font-size="10.00">int</text>
</g>
<!-- n48981&#45;&gt;n71094 -->
<g id="edge32" class="edge">
<title>n48981&#45;&gt;n71094</title>
<path fill="none" stroke="black" d="M2313.34,-1661.48C2273.06,-1591.83 2174.36,-1421.19 2129.22,-1343.14"/>
<polygon fill="black" stroke="black" points="2132.52,-1341.87 2124.49,-1334.96 2126.46,-1345.37 2132.52,-1341.87"/>
</g>
<!-- n51209 -->
<g id="node34" class="node">
<title>n51209</title>
<ellipse fill="lightgrey" stroke="black" cx="2196" cy="-1302" rx="36" ry="36"/>
<text text-anchor="middle" x="2196" y="-1299.5" font-family="Helvetica,sans-Serif" font-size="10.00">sumar</text>
</g>
<!-- n48981&#45;&gt;n51209 -->
<g id="edge33" class="edge">
<title>n48981&#45;&gt;n51209</title>
<path fill="none" stroke="black" d="M2319.37,-1658.5C2295,-1588.27 2238.56,-1425.65 2211.29,-1347.07"/>
<polygon fill="black" stroke="black" points="2214.73,-1346.29 2208.14,-1337.99 2208.12,-1348.58 2214.73,-1346.29"/>
</g>
<!-- n33643 -->
<g id="node35" class="node">
<title>n33643</title>
<ellipse fill="lightgrey" stroke="black" cx="2286" cy="-1302" rx="36" ry="36"/>
<text text-anchor="middle" x="2286" y="-1299.5" font-family="Helvetica,sans-Serif" font-size="10.00">(</text>
</g>
<!-- n48981&#45;&gt;n33643 -->
<g id="edge34" class="edge">
<title>n48981&#45;&gt;n33643</title>
<path fill="none" stroke="black" d="M2326.93,-1656.79C2318.77,-1586.29 2300.44,-1427.82 2291.34,-1349.14"/>
<polygon fill="black" stroke="black" points="2294.86,-1349.16 2290.24,-1339.63 2287.91,-1349.97 2294.86,-1349.16"/>
</g>
<!-- n36938 -->
<g id="node36" class="node">
<title>n36938</title>
<ellipse fill="lightgrey" stroke="black" cx="2376" cy="-1302" rx="36" ry="36"/>
<text text-anchor="middle" x="2376" y="-1299.5" font-family="Helvetica,sans-Serif" font-size="10.00">)</text>
</g>
<!-- n48981&#45;&gt;n36938 -->
<g id="edge35" class="edge">
<title>n48981&#45;&gt;n36938</title>
<path fill="none" stroke="black" d="M2335.07,-1656.79C2343.23,-1586.29 2361.56,-1427.82 2370.66,-1349.14"/>
<polygon fill="black" stroke="black" points="2374.09,-1349.97 2371.76,-1339.63 2367.14,-1349.16 2374.09,-1349.97"/>
</g>
<!-- n31423 -->
<g id="node37" class="node">
<title>n31423</title>
<ellipse fill="lightgrey" stroke="black" cx="2466" cy="-1302" rx="36" ry="36"/>
<text text-anchor="middle" x="2466" y="-1299.5" font-family="Helvetica,sans-Serif" font-size="10.00">Sentencia</text>
</g>
<!-- n48981&#45;&gt;n31423 -->
<g id="edge36" class="edge">
<title>n48981&#45;&gt;n31423</title>
<path fill="none" stroke="black" d="M2342.63,-1658.5C2367,-1588.27 2423.44,-1425.65 2450.71,-1347.07"/>
<polygon fill="black" stroke="black" points="2453.88,-1348.58 2453.86,-1337.99 2447.27,-1346.29 2453.88,-1348.58"/>
</g>
<!-- n45832 -->
<g id="node38" class="node">
<title>n45832</title>
<ellipse fill="lightgrey" stroke="black" cx="2466" cy="-911" rx="36" ry="36"/>
<text text-anchor="middle" x="2466" y="-908.5" font-family="Helvetica,sans-Serif" font-size="10.00">Return</text>
</g>
<!-- n31423&#45;&gt;n45832 -->
<g id="edge37" class="edge">
<title>n31423&#45;&gt;n45832</title>
<path fill="none" stroke="black" d="M2466,-1265.79C2466,-1195.38 2466,-1037.23 2466,-958.44"/>
<polygon fill="black" stroke="black" points="2469.5,-958.92 2466,-948.92 2462.5,-958.92 2469.5,-958.92"/>
</g>
<!-- n82885 -->
<g id="node39" class="node">
<title>n82885</title>
<ellipse fill="lightgrey" stroke="black" cx="2421" cy="-521" rx="36" ry="36"/>
<text text-anchor="middle" x="2421" y="-518.5" font-family="Helvetica,sans-Serif" font-size="10.00">return</text>
</g>
<!-- n45832&#45;&gt;n82885 -->
<g id="edge38" class="edge">
<title>n45832&#45;&gt;n82885</title>
<path fill="none" stroke="black" d="M2461.93,-874.88C2453.77,-804.56 2435.44,-646.5 2426.34,-568.02"/>
<polygon fill="black" stroke="black" points="2429.87,-568.07 2425.24,-558.54 2422.91,-568.88 2429.87,-568.07"/>
</g>
<!-- n87265 -->
<g id="node40" class="node">
<title>n87265</title>
<ellipse fill="lightgrey" stroke="black" cx="2511" cy="-521" rx="36" ry="36"/>
<text text-anchor="middle" x="2511" y="-518.5" font-family="Helvetica,sans-Serif" font-size="10.00">5</text>
</g>
<!-- n45832&#45;&gt;n87265 -->
<g id="edge39" class="edge">
<title>n45832&#45;&gt;n87265</title>
<path fill="none" stroke="black" d="M2470.07,-874.88C2478.23,-804.56 2496.56,-646.5 2505.66,-568.02"/>
<polygon fill="black" stroke="black" points="2509.09,-568.88 2506.76,-558.54 2502.13,-568.07 2509.09,-568.88"/>
</g>
<!-- n3009 -->
<g id="node42" class="node">
<title>n3009</title>
<ellipse fill="lightgrey" stroke="black" cx="2556" cy="-1302" rx="36" ry="36"/>
<text text-anchor="middle" x="2556" y="-1299.5" font-family="Helvetica,sans-Serif" font-size="10.00">void</text>
</g>
<!-- n31124&#45;&gt;n3009 -->
<g id="edge41" class="edge">
<title>n31124&#45;&gt;n3009</title>
<path fill="none" stroke="black" d="M2679.37,-1658.5C2655,-1588.27 2598.56,-1425.65 2571.29,-1347.07"/>
<polygon fill="black" stroke="black" points="2574.73,-1346.29 2568.14,-1337.99 2568.12,-1348.58 2574.73,-1346.29"/>
</g>
<!-- n33674 -->
<g id="node43" class="node">
<title>n33674</title>
<ellipse fill="lightgrey" stroke="black" cx="2646" cy="-1302" rx="36" ry="36"/>
<text text-anchor="middle" x="2646" y="-1299.5" font-family="Helvetica,sans-Serif" font-size="10.00">saludo</text>
</g>
<!-- n31124&#45;&gt;n33674 -->
<g id="edge42" class="edge">
<title>n31124&#45;&gt;n33674</title>
<path fill="none" stroke="black" d="M2686.93,-1656.79C2678.77,-1586.29 2660.44,-1427.82 2651.34,-1349.14"/>
<polygon fill="black" stroke="black" points="2654.86,-1349.16 2650.24,-1339.63 2647.91,-1349.97 2654.86,-1349.16"/>
</g>
<!-- n26425 -->
<g id="node44" class="node">
<title>n26425</title>
<ellipse fill="lightgrey" stroke="black" cx="2736" cy="-1302" rx="36" ry="36"/>
<text text-anchor="middle" x="2736" y="-1299.5" font-family="Helvetica,sans-Serif" font-size="10.00">(</text>
</g>
<!-- n31124&#45;&gt;n26425 -->
<g id="edge43" class="edge">
<title>n31124&#45;&gt;n26425</title>
<path fill="none" stroke="black" d="M2695.07,-1656.79C2703.23,-1586.29 2721.56,-1427.82 2730.66,-1349.14"/>
<polygon fill="black" stroke="black" points="2734.09,-1349.97 2731.76,-1339.63 2727.14,-1349.16 2734.09,-1349.97"/>
</g>
<!-- n1882 -->
<g id="node45" class="node">
<title>n1882</title>
<ellipse fill="lightgrey" stroke="black" cx="2826" cy="-1302" rx="36" ry="36"/>
<text text-anchor="middle" x="2826" y="-1299.5" font-family="Helvetica,sans-Serif" font-size="10.00">)</text>
</g>
<!-- n31124&#45;&gt;n1882 -->
<g id="edge44" class="edge">
<title>n31124&#45;&gt;n1882</title>
<path fill="none" stroke="black" d="M2702.63,-1658.5C2727,-1588.27 2783.44,-1425.65 2810.71,-1347.07"/>
<polygon fill="black" stroke="black" points="2813.88,-1348.58 2813.86,-1337.99 2807.27,-1346.29 2813.88,-1348.58"/>
</g>
<!-- n8368 -->
<g id="node46" class="node">
<title>n8368</title>
<ellipse fill="lightgrey" stroke="black" cx="2916" cy="-1302" rx="36" ry="36"/>
<text text-anchor="middle" x="2916" y="-1299.5" font-family="Helvetica,sans-Serif" font-size="10.00">Sentencia</text>
</g>
<!-- n31124&#45;&gt;n8368 -->
<g id="edge45" class="edge">
<title>n31124&#45;&gt;n8368</title>
<path fill="none" stroke="black" d="M2708.66,-1661.48C2748.94,-1591.83 2847.64,-1421.19 2892.78,-1343.14"/>
<polygon fill="black" stroke="black" points="2895.54,-1345.37 2897.51,-1334.96 2889.48,-1341.87 2895.54,-1345.37"/>
</g>
<!-- n61020 -->
<g id="node47" class="node">
<title>n61020</title>
<ellipse fill="lightgrey" stroke="black" cx="2916" cy="-911" rx="36" ry="36"/>
<text text-anchor="middle" x="2916" y="-908.5" font-family="Helvetica,sans-Serif" font-size="10.00">Print</text>
</g>
<!-- n8368&#45;&gt;n61020 -->
<g id="edge46" class="edge">
<title>n8368&#45;&gt;n61020</title>
<path fill="none" stroke="black" d="M2916,-1265.79C2916,-1195.38 2916,-1037.23 2916,-958.44"/>
<polygon fill="black" stroke="black" points="2919.5,-958.92 2916,-948.92 2912.5,-958.92 2919.5,-958.92"/>
</g>
<!-- n87720 -->
<g id="node48" class="node">
<title>n87720</title>
<ellipse fill="lightgrey" stroke="black" cx="2781" cy="-521" rx="36" ry="36"/>
<text text-anchor="middle" x="2781" y="-518.5" font-family="Helvetica,sans-Serif" font-size="10.00">print</text>
</g>
<!-- n61020&#45;&gt;n87720 -->
<g id="edge47" class="edge">
<title>n61020&#45;&gt;n87720</title>
<path fill="none" stroke="black" d="M2904.37,-876.58C2880,-806.53 2823.56,-644.33 2796.29,-565.96"/>
<polygon fill="black" stroke="black" points="2799.74,-565.2 2793.14,-556.9 2793.12,-567.5 2799.74,-565.2"/>
</g>
<!-- n85836 -->
<g id="node49" class="node">
<title>n85836</title>
<ellipse fill="lightgrey" stroke="black" cx="2871" cy="-521" rx="36" ry="36"/>
<text text-anchor="middle" x="2871" y="-518.5" font-family="Helvetica,sans-Serif" font-size="10.00">(</text>
</g>
<!-- n61020&#45;&gt;n85836 -->
<g id="edge48" class="edge">
<title>n61020&#45;&gt;n85836</title>
<path fill="none" stroke="black" d="M2911.93,-874.88C2903.77,-804.56 2885.44,-646.5 2876.34,-568.02"/>
<polygon fill="black" stroke="black" points="2879.87,-568.07 2875.24,-558.54 2872.91,-568.88 2879.87,-568.07"/>
</g>
<!-- n85422 -->
<g id="node50" class="node">
<title>n85422</title>
<ellipse fill="lightgrey" stroke="black" cx="2961" cy="-521" rx="36" ry="36"/>
<text text-anchor="middle" x="2961" y="-518.5" font-family="Helvetica,sans-Serif" font-size="10.00">Expresion</text>
</g>
<!-- n61020&#45;&gt;n85422 -->
<g id="edge49" class="edge">
<title>n61020&#45;&gt;n85422</title>
<path fill="none" stroke="black" d="M2920.07,-874.88C2928.23,-804.56 2946.56,-646.5 2955.66,-568.02"/>
<polygon fill="black" stroke="black" points="2959.09,-568.88 2956.76,-558.54 2952.13,-568.07 2959.09,-568.88"/>
</g>
<!-- n60050 -->
<g id="node52" class="node">
<title>n60050</title>
<ellipse fill="lightgrey" stroke="black" cx="3051" cy="-521" rx="36" ry="36"/>
<text text-anchor="middle" x="3051" y="-518.5" font-family="Helvetica,sans-Serif" font-size="10.00">)</text>
</g>
<!-- n61020&#45;&gt;n60050 -->
<g id="edge51" class="edge">
<title>n61020&#45;&gt;n60050</title>
<path fill="none" stroke="black" d="M2927.63,-876.58C2952,-806.53 3008.44,-644.33 3035.71,-565.96"/>
<polygon fill="black" stroke="black" points="3038.88,-567.5 3038.86,-556.9 3032.26,-565.2 3038.88,-567.5"/>
</g>
<!-- n13426 -->
<g id="node51" class="node">
<title>n13426</title>
<ellipse fill="lightgrey" stroke="black" cx="2961" cy="-130" rx="36" ry="36"/>
<text text-anchor="middle" x="2961" y="-127.5" font-family="Helvetica,sans-Serif" font-size="10.00">hola</text>
</g>
<!-- n85422&#45;&gt;n13426 -->
<g id="edge50" class="edge">
<title>n85422&#45;&gt;n13426</title>
<path fill="none" stroke="black" d="M2961,-484.79C2961,-414.38 2961,-256.23 2961,-177.44"/>
<polygon fill="black" stroke="black" points="2964.5,-177.92 2961,-167.92 2957.5,-177.92 2964.5,-177.92"/>
</g>
<!-- n42859 -->
<g id="node54" class="node">
<title>n42859</title>
<ellipse fill="lightgrey" stroke="black" cx="3006" cy="-1302" rx="36" ry="36"/>
<text text-anchor="middle" x="3006" y="-1299.5" font-family="Helvetica,sans-Serif" font-size="10.00">listas</text>
</g>
<!-- n38395&#45;&gt;n42859 -->
<g id="edge53" class="edge">
<title>n38395&#45;&gt;n42859</title>
<path fill="none" stroke="black" d="M3171.12,-1659.84C3138.71,-1589.8 3061.78,-1423.54 3025.53,-1345.2"/>
<polygon fill="black" stroke="black" points="3028.91,-1344.18 3021.54,-1336.58 3022.56,-1347.12 3028.91,-1344.18"/>
</g>
<!-- n48198 -->
<g id="node55" class="node">
<title>n48198</title>
<ellipse fill="lightgrey" stroke="black" cx="3096" cy="-1302" rx="36" ry="36"/>
<text text-anchor="middle" x="3096" y="-1299.5" font-family="Helvetica,sans-Serif" font-size="10.00">.</text>
</g>
<!-- n38395&#45;&gt;n48198 -->
<g id="edge54" class="edge">
<title>n38395&#45;&gt;n48198</title>
<path fill="none" stroke="black" d="M3178.01,-1657.48C3161.73,-1587.12 3124.72,-1427.15 3106.51,-1348.45"/>
<polygon fill="black" stroke="black" points="3109.97,-1347.87 3104.31,-1338.92 3103.15,-1349.45 3109.97,-1347.87"/>
</g>
<!-- n29726 -->
<g id="node56" class="node">
<title>n29726</title>
<ellipse fill="lightgrey" stroke="black" cx="3186" cy="-1302" rx="36" ry="36"/>
<text text-anchor="middle" x="3186" y="-1299.5" font-family="Helvetica,sans-Serif" font-size="10.00">add</text>
</g>
<!-- n38395&#45;&gt;n29726 -->
<g id="edge55" class="edge">
<title>n38395&#45;&gt;n29726</title>
<path fill="none" stroke="black" d="M3186,-1656.79C3186,-1586.38 3186,-1428.23 3186,-1349.44"/>
<polygon fill="black" stroke="black" points="3189.5,-1349.92 3186,-1339.92 3182.5,-1349.92 3189.5,-1349.92"/>
</g>
<!-- n21628 -->
<g id="node57" class="node">
<title>n21628</title>
<ellipse fill="lightgrey" stroke="black" cx="3276" cy="-1302" rx="36" ry="36"/>
<text text-anchor="middle" x="3276" y="-1299.5" font-family="Helvetica,sans-Serif" font-size="10.00">(</text>
</g>
<!-- n38395&#45;&gt;n21628 -->
<g id="edge56" class="edge">
<title>n38395&#45;&gt;n21628</title>
<path fill="none" stroke="black" d="M3193.99,-1657.48C3210.27,-1587.12 3247.28,-1427.15 3265.49,-1348.45"/>
<polygon fill="black" stroke="black" points="3268.85,-1349.45 3267.69,-1338.92 3262.03,-1347.87 3268.85,-1349.45"/>
</g>
<!-- n59832 -->
<g id="node58" class="node">
<title>n59832</title>
<ellipse fill="lightgrey" stroke="black" cx="3366" cy="-1302" rx="36" ry="36"/>
<text text-anchor="middle" x="3366" y="-1299.5" font-family="Helvetica,sans-Serif" font-size="10.00">Hola</text>
</g>
<!-- n38395&#45;&gt;n59832 -->
<g id="edge57" class="edge">
<title>n38395&#45;&gt;n59832</title>
<path fill="none" stroke="black" d="M3200.88,-1659.84C3233.29,-1589.8 3310.22,-1423.54 3346.47,-1345.2"/>
<polygon fill="black" stroke="black" points="3349.44,-1347.12 3350.46,-1336.58 3343.09,-1344.18 3349.44,-1347.12"/>
</g>
<!-- n68666 -->
<g id="node59" class="node">
<title>n68666</title>
<ellipse fill="lightgrey" stroke="black" cx="3456" cy="-1302" rx="36" ry="36"/>
<text text-anchor="middle" x="3456" y="-1299.5" font-family="Helvetica,sans-Serif" font-size="10.00">)</text>
</g>
<!-- n38395&#45;&gt;n68666 -->
<g id="edge58" class="edge">
<title>n38395&#45;&gt;n68666</title>
<path fill="none" stroke="black" d="M3206.29,-1662.76C3254.4,-1593.46 3375.34,-1419.21 3429.29,-1341.48"/>
<polygon fill="black" stroke="black" points="3432.15,-1343.5 3434.98,-1333.29 3426.4,-1339.51 3432.15,-1343.5"/>
</g>
<!-- n28640 -->
<g id="node61" class="node">
<title>n28640</title>
<ellipse fill="lightgrey" stroke="black" cx="3546" cy="-1302" rx="36" ry="36"/>
<text text-anchor="middle" x="3546" y="-1299.5" font-family="Helvetica,sans-Serif" font-size="10.00">listas</text>
</g>
<!-- n3733&#45;&gt;n28640 -->
<g id="edge60" class="edge">
<title>n3733&#45;&gt;n28640</title>
<path fill="none" stroke="black" d="M3711.12,-1659.84C3678.71,-1589.8 3601.78,-1423.54 3565.53,-1345.2"/>
<polygon fill="black" stroke="black" points="3568.91,-1344.18 3561.54,-1336.58 3562.56,-1347.12 3568.91,-1344.18"/>
</g>
<!-- n89136 -->
<g id="node62" class="node">
<title>n89136</title>
<ellipse fill="lightgrey" stroke="black" cx="3636" cy="-1302" rx="36" ry="36"/>
<text text-anchor="middle" x="3636" y="-1299.5" font-family="Helvetica,sans-Serif" font-size="10.00">.</text>
</g>
<!-- n3733&#45;&gt;n89136 -->
<g id="edge61" class="edge">
<title>n3733&#45;&gt;n89136</title>
<path fill="none" stroke="black" d="M3718.01,-1657.48C3701.73,-1587.12 3664.72,-1427.15 3646.51,-1348.45"/>
<polygon fill="black" stroke="black" points="3649.97,-1347.87 3644.31,-1338.92 3643.15,-1349.45 3649.97,-1347.87"/>
</g>
<!-- n91716 -->
<g id="node63" class="node">
<title>n91716</title>
<ellipse fill="lightgrey" stroke="black" cx="3726" cy="-1302" rx="36" ry="36"/>
<text text-anchor="middle" x="3726" y="-1299.5" font-family="Helvetica,sans-Serif" font-size="10.00">add</text>
</g>
<!-- n3733&#45;&gt;n91716 -->
<g id="edge62" class="edge">
<title>n3733&#45;&gt;n91716</title>
<path fill="none" stroke="black" d="M3726,-1656.79C3726,-1586.38 3726,-1428.23 3726,-1349.44"/>
<polygon fill="black" stroke="black" points="3729.5,-1349.92 3726,-1339.92 3722.5,-1349.92 3729.5,-1349.92"/>
</g>
<!-- n51821 -->
<g id="node64" class="node">
<title>n51821</title>
<ellipse fill="lightgrey" stroke="black" cx="3816" cy="-1302" rx="36" ry="36"/>
<text text-anchor="middle" x="3816" y="-1299.5" font-family="Helvetica,sans-Serif" font-size="10.00">(</text>
</g>
<!-- n3733&#45;&gt;n51821 -->
<g id="edge63" class="edge">
<title>n3733&#45;&gt;n51821</title>
<path fill="none" stroke="black" d="M3733.99,-1657.48C3750.27,-1587.12 3787.28,-1427.15 3805.49,-1348.45"/>
<polygon fill="black" stroke="black" points="3808.85,-1349.45 3807.69,-1338.92 3802.03,-1347.87 3808.85,-1349.45"/>
</g>
<!-- n14015 -->
<g id="node65" class="node">
<title>n14015</title>
<ellipse fill="lightgrey" stroke="black" cx="3906" cy="-1302" rx="36" ry="36"/>
<text text-anchor="middle" x="3906" y="-1299.5" font-family="Helvetica,sans-Serif" font-size="10.00">Mundo</text>
</g>
<!-- n3733&#45;&gt;n14015 -->
<g id="edge64" class="edge">
<title>n3733&#45;&gt;n14015</title>
<path fill="none" stroke="black" d="M3740.88,-1659.84C3773.29,-1589.8 3850.22,-1423.54 3886.47,-1345.2"/>
<polygon fill="black" stroke="black" points="3889.44,-1347.12 3890.46,-1336.58 3883.09,-1344.18 3889.44,-1347.12"/>
</g>
<!-- n91354 -->
<g id="node66" class="node">
<title>n91354</title>
<ellipse fill="lightgrey" stroke="black" cx="3996" cy="-1302" rx="36" ry="36"/>
<text text-anchor="middle" x="3996" y="-1299.5" font-family="Helvetica,sans-Serif" font-size="10.00">)</text>
</g>
<!-- n3733&#45;&gt;n91354 -->
<g id="edge65" class="edge">
<title>n3733&#45;&gt;n91354</title>
<path fill="none" stroke="black" d="M3746.29,-1662.76C3794.4,-1593.46 3915.34,-1419.21 3969.29,-1341.48"/>
<polygon fill="black" stroke="black" points="3972.15,-1343.5 3974.98,-1333.29 3966.4,-1339.51 3972.15,-1343.5"/>
</g>
<!-- n59395 -->
<g id="node68" class="node">
<title>n59395</title>
<ellipse fill="lightgrey" stroke="black" cx="4086" cy="-1302" rx="36" ry="36"/>
<text text-anchor="middle" x="4086" y="-1299.5" font-family="Helvetica,sans-Serif" font-size="10.00">listas</text>
</g>
<!-- n62206&#45;&gt;n59395 -->
<g id="edge67" class="edge">
<title>n62206&#45;&gt;n59395</title>
<path fill="none" stroke="black" d="M4335.71,-1662.76C4287.6,-1593.46 4166.66,-1419.21 4112.71,-1341.48"/>
<polygon fill="black" stroke="black" points="4115.6,-1339.51 4107.02,-1333.29 4109.85,-1343.5 4115.6,-1339.51"/>
</g>
<!-- n11430 -->
<g id="node69" class="node">
<title>n11430</title>
<ellipse fill="lightgrey" stroke="black" cx="4176" cy="-1302" rx="36" ry="36"/>
<text text-anchor="middle" x="4176" y="-1299.5" font-family="Helvetica,sans-Serif" font-size="10.00">[</text>
</g>
<!-- n62206&#45;&gt;n11430 -->
<g id="edge68" class="edge">
<title>n62206&#45;&gt;n11430</title>
<path fill="none" stroke="black" d="M4341.12,-1659.84C4308.71,-1589.8 4231.78,-1423.54 4195.53,-1345.2"/>
<polygon fill="black" stroke="black" points="4198.91,-1344.18 4191.54,-1336.58 4192.56,-1347.12 4198.91,-1344.18"/>
</g>
<!-- n45138 -->
<g id="node70" class="node">
<title>n45138</title>
<ellipse fill="lightgrey" stroke="black" cx="4266" cy="-1302" rx="36" ry="36"/>
<text text-anchor="middle" x="4266" y="-1299.5" font-family="Helvetica,sans-Serif" font-size="10.00">[</text>
</g>
<!-- n62206&#45;&gt;n45138 -->
<g id="edge69" class="edge">
<title>n62206&#45;&gt;n45138</title>
<path fill="none" stroke="black" d="M4348.01,-1657.48C4331.73,-1587.12 4294.72,-1427.15 4276.51,-1348.45"/>
<polygon fill="black" stroke="black" points="4279.97,-1347.87 4274.31,-1338.92 4273.15,-1349.45 4279.97,-1347.87"/>
</g>
<!-- n29105 -->
<g id="node71" class="node">
<title>n29105</title>
<ellipse fill="lightgrey" stroke="black" cx="4356" cy="-1302" rx="36" ry="36"/>
<text text-anchor="middle" x="4356" y="-1299.5" font-family="Helvetica,sans-Serif" font-size="10.00">0</text>
</g>
<!-- n62206&#45;&gt;n29105 -->
<g id="edge70" class="edge">
<title>n62206&#45;&gt;n29105</title>
<path fill="none" stroke="black" d="M4356,-1656.79C4356,-1586.38 4356,-1428.23 4356,-1349.44"/>
<polygon fill="black" stroke="black" points="4359.5,-1349.92 4356,-1339.92 4352.5,-1349.92 4359.5,-1349.92"/>
</g>
<!-- n93261 -->
<g id="node72" class="node">
<title>n93261</title>
<ellipse fill="lightgrey" stroke="black" cx="4446" cy="-1302" rx="36" ry="36"/>
<text text-anchor="middle" x="4446" y="-1299.5" font-family="Helvetica,sans-Serif" font-size="10.00">]</text>
</g>
<!-- n62206&#45;&gt;n93261 -->
<g id="edge71" class="edge">
<title>n62206&#45;&gt;n93261</title>
<path fill="none" stroke="black" d="M4363.99,-1657.48C4380.27,-1587.12 4417.28,-1427.15 4435.49,-1348.45"/>
<polygon fill="black" stroke="black" points="4438.85,-1349.45 4437.69,-1338.92 4432.03,-1347.87 4438.85,-1349.45"/>
</g>
<!-- n73677 -->
<g id="node73" class="node">
<title>n73677</title>
<ellipse fill="lightgrey" stroke="black" cx="4536" cy="-1302" rx="36" ry="36"/>
<text text-anchor="middle" x="4536" y="-1299.5" font-family="Helvetica,sans-Serif" font-size="10.00">]</text>
</g>
<!-- n62206&#45;&gt;n73677 -->
<g id="edge72" class="edge">
<title>n62206&#45;&gt;n73677</title>
<path fill="none" stroke="black" d="M4370.88,-1659.84C4403.29,-1589.8 4480.22,-1423.54 4516.47,-1345.2"/>
<polygon fill="black" stroke="black" points="4519.44,-1347.12 4520.46,-1336.58 4513.09,-1344.18 4519.44,-1347.12"/>
</g>
<!-- n48671 -->
<g id="node74" class="node">
<title>n48671</title>
<ellipse fill="lightgrey" stroke="black" cx="4626" cy="-1302" rx="36" ry="36"/>
<text text-anchor="middle" x="4626" y="-1299.5" font-family="Helvetica,sans-Serif" font-size="10.00">=</text>
</g>
<!-- n62206&#45;&gt;n48671 -->
<g id="edge73" class="edge">
<title>n62206&#45;&gt;n48671</title>
<path fill="none" stroke="black" d="M4376.29,-1662.76C4424.4,-1593.46 4545.34,-1419.21 4599.29,-1341.48"/>
<polygon fill="black" stroke="black" points="4602.15,-1343.5 4604.98,-1333.29 4596.4,-1339.51 4602.15,-1343.5"/>
</g>
<!-- n46667 -->
<g id="node75" class="node">
<title>n46667</title>
<ellipse fill="lightgrey" stroke="black" cx="4716" cy="-1302" rx="36" ry="36"/>
<text text-anchor="middle" x="4716" y="-1299.5" font-family="Helvetica,sans-Serif" font-size="10.00">OLC1</text>
</g>
<!-- n62206&#45;&gt;n46667 -->
<g id="edge74" class="edge">
<title>n62206&#45;&gt;n46667</title>
<path fill="none" stroke="black" d="M4380.18,-1665.87C4443.33,-1597.64 4613.21,-1414.07 4684.17,-1337.39"/>
<polygon fill="black" stroke="black" points="4686.67,-1339.84 4690.9,-1330.12 4681.54,-1335.09 4686.67,-1339.84"/>
</g>
</g>
</svg>
