<?xml version="1.0" encoding="UTF-8" standalone="no"?>
<!DOCTYPE svg PUBLIC "-//W3C//DTD SVG 1.1//EN"
 "http://www.w3.org/Graphics/SVG/1.1/DTD/svg11.dtd">
<!-- Generated by graphviz version 7.1.0 (20230121.1956)
 -->
<!-- Title: G Pages: 1 -->
<svg width="309pt" height="165pt"
 viewBox="0.00 0.00 309.00 165.00" xmlns="http://www.w3.org/2000/svg" xmlns:xlink="http://www.w3.org/1999/xlink">
<g id="graph0" class="graph" transform="scale(1 1) rotate(0) translate(4 161)">
<title>G</title>
<polygon fill="white" stroke="none" points="-4,4 -4,-161 305,-161 305,4 -4,4"/>
<!-- table -->
<g id="node1" class="node">
<title>table</title>
<polygon fill="none" stroke="black" points="9.5,-130.5 9.5,-151.5 112.5,-151.5 112.5,-130.5 9.5,-130.5"/>
<text text-anchor="start" x="25" y="-137.3" font-family="Times New Roman,serif" font-size="14.00">Identificador</text>
<polygon fill="none" stroke="black" points="112.5,-130.5 112.5,-151.5 164.5,-151.5 164.5,-130.5 112.5,-130.5"/>
<text text-anchor="start" x="124.5" y="-137.3" font-family="Times New Roman,serif" font-size="14.00">Tipo</text>
<polygon fill="none" stroke="black" points="164.5,-130.5 164.5,-151.5 198.5,-151.5 198.5,-130.5 164.5,-130.5"/>
<text text-anchor="start" x="167.5" y="-137.3" font-family="Times New Roman,serif" font-size="14.00">Tipo</text>
<polygon fill="none" stroke="black" points="198.5,-130.5 198.5,-151.5 235.5,-151.5 235.5,-130.5 198.5,-130.5"/>
<text text-anchor="start" x="201.5" y="-137.3" font-family="Times New Roman,serif" font-size="14.00">Linea</text>
<polygon fill="none" stroke="black" points="235.5,-130.5 235.5,-151.5 292.5,-151.5 292.5,-130.5 235.5,-130.5"/>
<text text-anchor="start" x="238.5" y="-137.3" font-family="Times New Roman,serif" font-size="14.00">Columna</text>
<polygon fill="none" stroke="black" points="9.5,-109.5 9.5,-130.5 112.5,-130.5 112.5,-109.5 9.5,-109.5"/>
<text text-anchor="start" x="16" y="-116.3" font-family="Times New Roman,serif" font-size="14.00">factorialiterativo</text>
<polygon fill="none" stroke="black" points="112.5,-109.5 112.5,-130.5 164.5,-130.5 164.5,-109.5 112.5,-109.5"/>
<text text-anchor="start" x="115.5" y="-116.3" font-family="Times New Roman,serif" font-size="14.00">Función</text>
<polygon fill="none" stroke="black" points="164.5,-109.5 164.5,-130.5 198.5,-130.5 198.5,-109.5 164.5,-109.5"/>
<text text-anchor="start" x="178" y="-116.3" font-family="Times New Roman,serif" font-size="14.00">0</text>
<polygon fill="none" stroke="black" points="198.5,-109.5 198.5,-130.5 235.5,-130.5 235.5,-109.5 198.5,-109.5"/>
<text text-anchor="start" x="213.5" y="-116.3" font-family="Times New Roman,serif" font-size="14.00">8</text>
<polygon fill="none" stroke="black" points="235.5,-109.5 235.5,-130.5 292.5,-130.5 292.5,-109.5 235.5,-109.5"/>
<text text-anchor="start" x="260.5" y="-116.3" font-family="Times New Roman,serif" font-size="14.00">4</text>
<polygon fill="none" stroke="black" points="9.5,-88.5 9.5,-109.5 112.5,-109.5 112.5,-88.5 9.5,-88.5"/>
<text text-anchor="start" x="12.5" y="-95.3" font-family="Times New Roman,serif" font-size="14.00">factorialrecursivo</text>
<polygon fill="none" stroke="black" points="112.5,-88.5 112.5,-109.5 164.5,-109.5 164.5,-88.5 112.5,-88.5"/>
<text text-anchor="start" x="115.5" y="-95.3" font-family="Times New Roman,serif" font-size="14.00">Función</text>
<polygon fill="none" stroke="black" points="164.5,-88.5 164.5,-109.5 198.5,-109.5 198.5,-88.5 164.5,-88.5"/>
<text text-anchor="start" x="178" y="-95.3" font-family="Times New Roman,serif" font-size="14.00">0</text>
<polygon fill="none" stroke="black" points="198.5,-88.5 198.5,-109.5 235.5,-109.5 235.5,-88.5 198.5,-88.5"/>
<text text-anchor="start" x="210" y="-95.3" font-family="Times New Roman,serif" font-size="14.00">16</text>
<polygon fill="none" stroke="black" points="235.5,-88.5 235.5,-109.5 292.5,-109.5 292.5,-88.5 235.5,-88.5"/>
<text text-anchor="start" x="260.5" y="-95.3" font-family="Times New Roman,serif" font-size="14.00">4</text>
<polygon fill="none" stroke="black" points="9.5,-67.5 9.5,-88.5 112.5,-88.5 112.5,-67.5 9.5,-67.5"/>
<text text-anchor="start" x="57.5" y="-74.3" font-family="Times New Roman,serif" font-size="14.00">n</text>
<polygon fill="none" stroke="black" points="112.5,-67.5 112.5,-88.5 164.5,-88.5 164.5,-67.5 112.5,-67.5"/>
<text text-anchor="start" x="115.5" y="-74.3" font-family="Times New Roman,serif" font-size="14.00">Variable</text>
<polygon fill="none" stroke="black" points="164.5,-67.5 164.5,-88.5 198.5,-88.5 198.5,-67.5 164.5,-67.5"/>
<text text-anchor="start" x="178" y="-74.3" font-family="Times New Roman,serif" font-size="14.00">0</text>
<polygon fill="none" stroke="black" points="198.5,-67.5 198.5,-88.5 235.5,-88.5 235.5,-67.5 198.5,-67.5"/>
<text text-anchor="start" x="213.5" y="-74.3" font-family="Times New Roman,serif" font-size="14.00">8</text>
<polygon fill="none" stroke="black" points="235.5,-67.5 235.5,-88.5 292.5,-88.5 292.5,-67.5 235.5,-67.5"/>
<text text-anchor="start" x="257" y="-74.3" font-family="Times New Roman,serif" font-size="14.00">23</text>
<polygon fill="none" stroke="black" points="9.5,-46.5 9.5,-67.5 112.5,-67.5 112.5,-46.5 9.5,-46.5"/>
<text text-anchor="start" x="35" y="-53.3" font-family="Times New Roman,serif" font-size="14.00">resultado</text>
<polygon fill="none" stroke="black" points="112.5,-46.5 112.5,-67.5 164.5,-67.5 164.5,-46.5 112.5,-46.5"/>
<text text-anchor="start" x="115.5" y="-53.3" font-family="Times New Roman,serif" font-size="14.00">Variable</text>
<polygon fill="none" stroke="black" points="164.5,-46.5 164.5,-67.5 198.5,-67.5 198.5,-46.5 164.5,-46.5"/>
<text text-anchor="start" x="178" y="-53.3" font-family="Times New Roman,serif" font-size="14.00">0</text>
<polygon fill="none" stroke="black" points="198.5,-46.5 198.5,-67.5 235.5,-67.5 235.5,-46.5 198.5,-46.5"/>
<text text-anchor="start" x="213.5" y="-53.3" font-family="Times New Roman,serif" font-size="14.00">9</text>
<polygon fill="none" stroke="black" points="235.5,-46.5 235.5,-67.5 292.5,-67.5 292.5,-46.5 235.5,-46.5"/>
<text text-anchor="start" x="260.5" y="-53.3" font-family="Times New Roman,serif" font-size="14.00">8</text>
<polygon fill="none" stroke="black" points="9.5,-25.5 9.5,-46.5 112.5,-46.5 112.5,-25.5 9.5,-25.5"/>
<text text-anchor="start" x="59" y="-32.3" font-family="Times New Roman,serif" font-size="14.00">i</text>
<polygon fill="none" stroke="black" points="112.5,-25.5 112.5,-46.5 164.5,-46.5 164.5,-25.5 112.5,-25.5"/>
<text text-anchor="start" x="115.5" y="-32.3" font-family="Times New Roman,serif" font-size="14.00">Variable</text>
<polygon fill="none" stroke="black" points="164.5,-25.5 164.5,-46.5 198.5,-46.5 198.5,-25.5 164.5,-25.5"/>
<text text-anchor="start" x="178" y="-32.3" font-family="Times New Roman,serif" font-size="14.00">0</text>
<polygon fill="none" stroke="black" points="198.5,-25.5 198.5,-46.5 235.5,-46.5 235.5,-25.5 198.5,-25.5"/>
<text text-anchor="start" x="210" y="-32.3" font-family="Times New Roman,serif" font-size="14.00">10</text>
<polygon fill="none" stroke="black" points="235.5,-25.5 235.5,-46.5 292.5,-46.5 292.5,-25.5 235.5,-25.5"/>
<text text-anchor="start" x="257" y="-32.3" font-family="Times New Roman,serif" font-size="14.00">13</text>
<polygon fill="none" stroke="black" points="9.5,-4.5 9.5,-25.5 112.5,-25.5 112.5,-4.5 9.5,-4.5"/>
<text text-anchor="start" x="57.5" y="-11.3" font-family="Times New Roman,serif" font-size="14.00">n</text>
<polygon fill="none" stroke="black" points="112.5,-4.5 112.5,-25.5 164.5,-25.5 164.5,-4.5 112.5,-4.5"/>
<text text-anchor="start" x="115.5" y="-11.3" font-family="Times New Roman,serif" font-size="14.00">Variable</text>
<polygon fill="none" stroke="black" points="164.5,-4.5 164.5,-25.5 198.5,-25.5 198.5,-4.5 164.5,-4.5"/>
<text text-anchor="start" x="178" y="-11.3" font-family="Times New Roman,serif" font-size="14.00">0</text>
<polygon fill="none" stroke="black" points="198.5,-4.5 198.5,-25.5 235.5,-25.5 235.5,-4.5 198.5,-4.5"/>
<text text-anchor="start" x="210" y="-11.3" font-family="Times New Roman,serif" font-size="14.00">16</text>
<polygon fill="none" stroke="black" points="235.5,-4.5 235.5,-25.5 292.5,-25.5 292.5,-4.5 235.5,-4.5"/>
<text text-anchor="start" x="257" y="-11.3" font-family="Times New Roman,serif" font-size="14.00">23</text>
<polygon fill="none" stroke="black" points="8,-4 8,-153 293,-153 293,-4 8,-4"/>
</g>
</g>
</svg>
