<?xml version="1.0" encoding="UTF-8" standalone="no"?>
<!DOCTYPE svg PUBLIC "-//W3C//DTD SVG 1.1//EN"
 "http://www.w3.org/Graphics/SVG/1.1/DTD/svg11.dtd">
<!-- Generated by graphviz version 7.1.0 (20230121.1956)
 -->
<!-- Title: G Pages: 1 -->
<svg width="266pt" height="44pt"
 viewBox="0.00 0.00 266.00 44.00" xmlns="http://www.w3.org/2000/svg" xmlns:xlink="http://www.w3.org/1999/xlink">
<g id="graph0" class="graph" transform="scale(1 1) rotate(0) translate(4 40)">
<title>G</title>
<polygon fill="white" stroke="none" points="-4,4 -4,-40 262,-40 262,4 -4,4"/>
<!-- table -->
<g id="node1" class="node">
<title>table</title>
<polygon fill="none" stroke="black" points="9,-7 9,-28 87,-28 87,-7 9,-7"/>
<text text-anchor="start" x="12" y="-13.8" font-family="Times New Roman,serif" font-size="14.00">Identificador</text>
<polygon fill="none" stroke="black" points="87,-7 87,-28 121,-28 121,-7 87,-7"/>
<text text-anchor="start" x="90" y="-13.8" font-family="Times New Roman,serif" font-size="14.00">Tipo</text>
<polygon fill="none" stroke="black" points="121,-7 121,-28 155,-28 155,-7 121,-7"/>
<text text-anchor="start" x="124" y="-13.8" font-family="Times New Roman,serif" font-size="14.00">Tipo</text>
<polygon fill="none" stroke="black" points="155,-7 155,-28 192,-28 192,-7 155,-7"/>
<text text-anchor="start" x="158" y="-13.8" font-family="Times New Roman,serif" font-size="14.00">Linea</text>
<polygon fill="none" stroke="black" points="192,-7 192,-28 249,-28 249,-7 192,-7"/>
<text text-anchor="start" x="195" y="-13.8" font-family="Times New Roman,serif" font-size="14.00">Columna</text>
<polygon fill="none" stroke="black" points="8,-6.5 8,-29.5 250,-29.5 250,-6.5 8,-6.5"/>
</g>
</g>
</svg>
