<?xml version="1.0" encoding="UTF-8" standalone="no"?>
<!DOCTYPE svg PUBLIC "-//W3C//DTD SVG 1.1//EN"
 "http://www.w3.org/Graphics/SVG/1.1/DTD/svg11.dtd">
<!-- Generated by graphviz version 7.1.0 (20230121.1956)
 -->
<!-- Title: G Pages: 1 -->
<svg width="284pt" height="60pt"
 viewBox="0.00 0.00 284.00 60.00" xmlns="http://www.w3.org/2000/svg" xmlns:xlink="http://www.w3.org/1999/xlink">
<g id="graph0" class="graph" transform="scale(1 1) rotate(0) translate(4 56)">
<title>G</title>
<polygon fill="white" stroke="none" points="-4,4 -4,-56 280,-56 280,4 -4,4"/>
<!-- table -->
<g id="node1" class="node">
<title>table</title>
<polygon fill="none" stroke="black" points="9,-26 9,-47 87,-47 87,-26 9,-26"/>
<text text-anchor="start" x="12" y="-32.8" font-family="Times New Roman,serif" font-size="14.00">Identificador</text>
<polygon fill="none" stroke="black" points="87,-26 87,-47 139,-47 139,-26 87,-26"/>
<text text-anchor="start" x="99" y="-32.8" font-family="Times New Roman,serif" font-size="14.00">Tipo</text>
<polygon fill="none" stroke="black" points="139,-26 139,-47 173,-47 173,-26 139,-26"/>
<text text-anchor="start" x="142" y="-32.8" font-family="Times New Roman,serif" font-size="14.00">Tipo</text>
<polygon fill="none" stroke="black" points="173,-26 173,-47 210,-47 210,-26 173,-26"/>
<text text-anchor="start" x="176" y="-32.8" font-family="Times New Roman,serif" font-size="14.00">Linea</text>
<polygon fill="none" stroke="black" points="210,-26 210,-47 267,-47 267,-26 210,-26"/>
<text text-anchor="start" x="213" y="-32.8" font-family="Times New Roman,serif" font-size="14.00">Columna</text>
<polygon fill="none" stroke="black" points="9,-5 9,-26 87,-26 87,-5 9,-5"/>
<text text-anchor="start" x="34" y="-11.8" font-family="Times New Roman,serif" font-size="14.00">edad</text>
<polygon fill="none" stroke="black" points="87,-5 87,-26 139,-26 139,-5 87,-5"/>
<text text-anchor="start" x="90" y="-11.8" font-family="Times New Roman,serif" font-size="14.00">Variable</text>
<polygon fill="none" stroke="black" points="139,-5 139,-26 173,-26 173,-5 139,-5"/>
<text text-anchor="start" x="152.5" y="-11.8" font-family="Times New Roman,serif" font-size="14.00">0</text>
<polygon fill="none" stroke="black" points="173,-5 173,-26 210,-26 210,-5 173,-5"/>
<text text-anchor="start" x="188" y="-11.8" font-family="Times New Roman,serif" font-size="14.00">1</text>
<polygon fill="none" stroke="black" points="210,-5 210,-26 267,-26 267,-5 210,-5"/>
<text text-anchor="start" x="235" y="-11.8" font-family="Times New Roman,serif" font-size="14.00">4</text>
<polygon fill="none" stroke="black" points="8,-4 8,-48 268,-48 268,-4 8,-4"/>
</g>
</g>
</svg>
