<?xml version="1.0" encoding="UTF-8" standalone="no"?>
<!DOCTYPE svg PUBLIC "-//W3C//DTD SVG 1.1//EN"
 "http://www.w3.org/Graphics/SVG/1.1/DTD/svg11.dtd">
<!-- Generated by graphviz version 7.1.0 (20230121.1956)
 -->
<!-- Title: G Pages: 1 -->
<svg width="303pt" height="144pt"
 viewBox="0.00 0.00 303.00 144.00" xmlns="http://www.w3.org/2000/svg" xmlns:xlink="http://www.w3.org/1999/xlink">
<g id="graph0" class="graph" transform="scale(1 1) rotate(0) translate(4 140)">
<title>G</title>
<polygon fill="white" stroke="none" points="-4,4 -4,-140 299,-140 299,4 -4,4"/>
<!-- table -->
<g id="node1" class="node">
<title>table</title>
<polygon fill="none" stroke="black" points="9.5,-110 9.5,-131 93.5,-131 93.5,-110 9.5,-110"/>
<text text-anchor="start" x="15.5" y="-116.8" font-family="Times New Roman,serif" font-size="14.00">Identificador</text>
<polygon fill="none" stroke="black" points="93.5,-110 93.5,-131 145.5,-131 145.5,-110 93.5,-110"/>
<text text-anchor="start" x="105.5" y="-116.8" font-family="Times New Roman,serif" font-size="14.00">Tipo</text>
<polygon fill="none" stroke="black" points="145.5,-110 145.5,-131 192.5,-131 192.5,-110 145.5,-110"/>
<text text-anchor="start" x="155" y="-116.8" font-family="Times New Roman,serif" font-size="14.00">Tipo</text>
<polygon fill="none" stroke="black" points="192.5,-110 192.5,-131 229.5,-131 229.5,-110 192.5,-110"/>
<text text-anchor="start" x="195.5" y="-116.8" font-family="Times New Roman,serif" font-size="14.00">Linea</text>
<polygon fill="none" stroke="black" points="229.5,-110 229.5,-131 286.5,-131 286.5,-110 229.5,-110"/>
<text text-anchor="start" x="232.5" y="-116.8" font-family="Times New Roman,serif" font-size="14.00">Columna</text>
<polygon fill="none" stroke="black" points="9.5,-89 9.5,-110 93.5,-110 93.5,-89 9.5,-89"/>
<text text-anchor="start" x="33.5" y="-95.8" font-family="Times New Roman,serif" font-size="14.00">dinero</text>
<polygon fill="none" stroke="black" points="93.5,-89 93.5,-110 145.5,-110 145.5,-89 93.5,-89"/>
<text text-anchor="start" x="96.5" y="-95.8" font-family="Times New Roman,serif" font-size="14.00">Variable</text>
<polygon fill="none" stroke="black" points="145.5,-89 145.5,-110 192.5,-110 192.5,-89 145.5,-89"/>
<text text-anchor="start" x="148.5" y="-95.8" font-family="Times New Roman,serif" font-size="14.00">Double</text>
<polygon fill="none" stroke="black" points="192.5,-89 192.5,-110 229.5,-110 229.5,-89 192.5,-89"/>
<text text-anchor="start" x="207.5" y="-95.8" font-family="Times New Roman,serif" font-size="14.00">3</text>
<polygon fill="none" stroke="black" points="229.5,-89 229.5,-110 286.5,-110 286.5,-89 229.5,-89"/>
<text text-anchor="start" x="254.5" y="-95.8" font-family="Times New Roman,serif" font-size="14.00">7</text>
<polygon fill="none" stroke="black" points="9.5,-68 9.5,-89 93.5,-89 93.5,-68 9.5,-68"/>
<text text-anchor="start" x="34.5" y="-74.8" font-family="Times New Roman,serif" font-size="14.00">sumar</text>
<polygon fill="none" stroke="black" points="93.5,-68 93.5,-89 145.5,-89 145.5,-68 93.5,-68"/>
<text text-anchor="start" x="96.5" y="-74.8" font-family="Times New Roman,serif" font-size="14.00">Función</text>
<polygon fill="none" stroke="black" points="145.5,-68 145.5,-89 192.5,-89 192.5,-68 145.5,-68"/>
<text text-anchor="start" x="150.5" y="-74.8" font-family="Times New Roman,serif" font-size="14.00">Entero</text>
<polygon fill="none" stroke="black" points="192.5,-68 192.5,-89 229.5,-89 229.5,-68 192.5,-68"/>
<text text-anchor="start" x="207.5" y="-74.8" font-family="Times New Roman,serif" font-size="14.00">6</text>
<polygon fill="none" stroke="black" points="229.5,-68 229.5,-89 286.5,-89 286.5,-68 229.5,-68"/>
<text text-anchor="start" x="254.5" y="-74.8" font-family="Times New Roman,serif" font-size="14.00">4</text>
<polygon fill="none" stroke="black" points="9.5,-47 9.5,-68 93.5,-68 93.5,-47 9.5,-47"/>
<text text-anchor="start" x="33" y="-53.8" font-family="Times New Roman,serif" font-size="14.00">saludo</text>
<polygon fill="none" stroke="black" points="93.5,-47 93.5,-68 145.5,-68 145.5,-47 93.5,-47"/>
<text text-anchor="start" x="97" y="-53.8" font-family="Times New Roman,serif" font-size="14.00">Método</text>
<polygon fill="none" stroke="black" points="145.5,-47 145.5,-68 192.5,-68 192.5,-47 145.5,-47"/>
<text text-anchor="start" x="155" y="-53.8" font-family="Times New Roman,serif" font-size="14.00">Void</text>
<polygon fill="none" stroke="black" points="192.5,-47 192.5,-68 229.5,-68 229.5,-47 192.5,-47"/>
<text text-anchor="start" x="204" y="-53.8" font-family="Times New Roman,serif" font-size="14.00">10</text>
<polygon fill="none" stroke="black" points="229.5,-47 229.5,-68 286.5,-68 286.5,-47 229.5,-47"/>
<text text-anchor="start" x="254.5" y="-53.8" font-family="Times New Roman,serif" font-size="14.00">5</text>
<polygon fill="none" stroke="black" points="9.5,-26 9.5,-47 93.5,-47 93.5,-26 9.5,-26"/>
<text text-anchor="start" x="37.5" y="-32.8" font-family="Times New Roman,serif" font-size="14.00">listas</text>
<polygon fill="none" stroke="black" points="93.5,-26 93.5,-47 145.5,-47 145.5,-26 93.5,-26"/>
<text text-anchor="start" x="105.5" y="-32.8" font-family="Times New Roman,serif" font-size="14.00">Lista</text>
<polygon fill="none" stroke="black" points="145.5,-26 145.5,-47 192.5,-47 192.5,-26 145.5,-26"/>
<text text-anchor="start" x="152" y="-32.8" font-family="Times New Roman,serif" font-size="14.00">String</text>
<polygon fill="none" stroke="black" points="192.5,-26 192.5,-47 229.5,-47 229.5,-26 192.5,-26"/>
<text text-anchor="start" x="207.5" y="-32.8" font-family="Times New Roman,serif" font-size="14.00">1</text>
<polygon fill="none" stroke="black" points="229.5,-26 229.5,-47 286.5,-47 286.5,-26 229.5,-26"/>
<text text-anchor="start" x="254.5" y="-32.8" font-family="Times New Roman,serif" font-size="14.00">4</text>
<polygon fill="none" stroke="black" points="9.5,-5 9.5,-26 93.5,-26 93.5,-5 9.5,-5"/>
<text text-anchor="start" x="12.5" y="-11.8" font-family="Times New Roman,serif" font-size="14.00">vectornumero</text>
<polygon fill="none" stroke="black" points="93.5,-5 93.5,-26 145.5,-26 145.5,-5 93.5,-5"/>
<text text-anchor="start" x="100" y="-11.8" font-family="Times New Roman,serif" font-size="14.00">Vector</text>
<polygon fill="none" stroke="black" points="145.5,-5 145.5,-26 192.5,-26 192.5,-5 145.5,-5"/>
<text text-anchor="start" x="150.5" y="-11.8" font-family="Times New Roman,serif" font-size="14.00">Entero</text>
<polygon fill="none" stroke="black" points="192.5,-5 192.5,-26 229.5,-26 229.5,-5 192.5,-5"/>
<text text-anchor="start" x="207.5" y="-11.8" font-family="Times New Roman,serif" font-size="14.00">2</text>
<polygon fill="none" stroke="black" points="229.5,-5 229.5,-26 286.5,-26 286.5,-5 229.5,-5"/>
<text text-anchor="start" x="254.5" y="-11.8" font-family="Times New Roman,serif" font-size="14.00">3</text>
<polygon fill="none" stroke="black" points="8,-4 8,-132 287,-132 287,-4 8,-4"/>
</g>
</g>
</svg>
