<?xml version="1.0" encoding="UTF-8" standalone="no"?>
<!DOCTYPE svg PUBLIC "-//W3C//DTD SVG 1.1//EN"
 "http://www.w3.org/Graphics/SVG/1.1/DTD/svg11.dtd">
<!-- Generated by graphviz version 7.1.0 (20230121.1956)
 -->
<!-- Title: G Pages: 1 -->
<svg width="2037pt" height="1120pt"
 viewBox="0.00 0.00 2037.00 1119.89" xmlns="http://www.w3.org/2000/svg" xmlns:xlink="http://www.w3.org/1999/xlink">
<g id="graph0" class="graph" transform="scale(1 1) rotate(0) translate(4 1115.89)">
<title>G</title>
<polygon fill="white" stroke="none" points="-4,4 -4,-1115.89 2033,-1115.89 2033,4 -4,4"/>
<!-- n88648 -->
<g id="node1" class="node">
<title>n88648</title>
<ellipse fill="lightgrey" stroke="black" cx="351" cy="-1069" rx="36" ry="36"/>
<text text-anchor="middle" x="351" y="-1066.5" font-family="Helvetica,sans-Serif" font-size="10.00">Inicio</text>
</g>
<!-- n91965 -->
<g id="node2" class="node">
<title>n91965</title>
<ellipse fill="lightgrey" stroke="black" cx="351" cy="-941" rx="36" ry="36"/>
<text text-anchor="middle" x="351" y="-938.5" font-family="Helvetica,sans-Serif" font-size="10.00">Sentencia</text>
</g>
<!-- n88648&#45;&gt;n91965 -->
<g id="edge1" class="edge">
<title>n88648&#45;&gt;n91965</title>
<path fill="none" stroke="black" d="M351,-1032.57C351,-1018.9 351,-1003.07 351,-988.51"/>
<polygon fill="black" stroke="black" points="354.5,-988.68 351,-978.68 347.5,-988.68 354.5,-988.68"/>
</g>
<!-- n24197 -->
<g id="node3" class="node">
<title>n24197</title>
<ellipse fill="lightgrey" stroke="black" cx="216" cy="-813" rx="36" ry="36"/>
<text text-anchor="middle" x="216" y="-810.5" font-family="Helvetica,sans-Serif" font-size="10.00">Declaración</text>
</g>
<!-- n91965&#45;&gt;n24197 -->
<g id="edge2" class="edge">
<title>n91965&#45;&gt;n24197</title>
<path fill="none" stroke="black" d="M324.97,-915.71C303.68,-895.83 273.4,-867.58 250.16,-845.89"/>
<polygon fill="black" stroke="black" points="252.75,-843.52 243.06,-839.25 247.98,-848.63 252.75,-843.52"/>
</g>
<!-- n91914 -->
<g id="node8" class="node">
<title>n91914</title>
<ellipse fill="lightgrey" stroke="black" cx="531" cy="-813" rx="36" ry="36"/>
<text text-anchor="middle" x="531" y="-810.5" font-family="Helvetica,sans-Serif" font-size="10.00">Switch</text>
</g>
<!-- n91965&#45;&gt;n91914 -->
<g id="edge7" class="edge">
<title>n91965&#45;&gt;n91914</title>
<path fill="none" stroke="black" d="M380.32,-919.48C410.92,-898.06 459.02,-864.38 492.63,-840.86"/>
<polygon fill="black" stroke="black" points="494.27,-843.99 500.45,-835.38 490.25,-838.25 494.27,-843.99"/>
</g>
<!-- n65448 -->
<g id="node4" class="node">
<title>n65448</title>
<ellipse fill="lightgrey" stroke="black" cx="36" cy="-684" rx="36" ry="36"/>
<text text-anchor="middle" x="36" y="-681.5" font-family="Helvetica,sans-Serif" font-size="10.00">int</text>
</g>
<!-- n24197&#45;&gt;n65448 -->
<g id="edge3" class="edge">
<title>n24197&#45;&gt;n65448</title>
<path fill="none" stroke="black" d="M186.13,-792.43C158.53,-774.15 116.53,-745.89 81,-720 78.38,-718.09 75.68,-716.09 72.99,-714.06"/>
<polygon fill="black" stroke="black" points="75.16,-711.32 65.08,-708.04 70.91,-716.88 75.16,-711.32"/>
</g>
<!-- n79033 -->
<g id="node5" class="node">
<title>n79033</title>
<ellipse fill="lightgrey" stroke="black" cx="126" cy="-684" rx="36" ry="36"/>
<text text-anchor="middle" x="126" y="-681.5" font-family="Helvetica,sans-Serif" font-size="10.00">edad</text>
</g>
<!-- n24197&#45;&gt;n79033 -->
<g id="edge4" class="edge">
<title>n24197&#45;&gt;n79033</title>
<path fill="none" stroke="black" d="M195.58,-783.18C182.92,-765.32 166.52,-742.18 152.82,-722.85"/>
<polygon fill="black" stroke="black" points="155.85,-721.07 147.22,-714.94 150.14,-725.12 155.85,-721.07"/>
</g>
<!-- n75948 -->
<g id="node6" class="node">
<title>n75948</title>
<ellipse fill="lightgrey" stroke="black" cx="216" cy="-684" rx="36" ry="36"/>
<text text-anchor="middle" x="216" y="-681.5" font-family="Helvetica,sans-Serif" font-size="10.00">=</text>
</g>
<!-- n24197&#45;&gt;n75948 -->
<g id="edge5" class="edge">
<title>n24197&#45;&gt;n75948</title>
<path fill="none" stroke="black" d="M216,-776.62C216,-762.59 216,-746.25 216,-731.3"/>
<polygon fill="black" stroke="black" points="219.5,-731.7 216,-721.7 212.5,-731.7 219.5,-731.7"/>
</g>
<!-- n44103 -->
<g id="node7" class="node">
<title>n44103</title>
<ellipse fill="lightgrey" stroke="black" cx="306" cy="-684" rx="36" ry="36"/>
<text text-anchor="middle" x="306" y="-681.5" font-family="Helvetica,sans-Serif" font-size="10.00">18</text>
</g>
<!-- n24197&#45;&gt;n44103 -->
<g id="edge6" class="edge">
<title>n24197&#45;&gt;n44103</title>
<path fill="none" stroke="black" d="M236.42,-783.18C249.08,-765.32 265.48,-742.18 279.18,-722.85"/>
<polygon fill="black" stroke="black" points="281.86,-725.12 284.78,-714.94 276.15,-721.07 281.86,-725.12"/>
</g>
<!-- n18520 -->
<g id="node9" class="node">
<title>n18520</title>
<ellipse fill="lightgrey" stroke="black" cx="396" cy="-684" rx="36" ry="36"/>
<text text-anchor="middle" x="396" y="-681.5" font-family="Helvetica,sans-Serif" font-size="10.00">switch</text>
</g>
<!-- n91914&#45;&gt;n18520 -->
<g id="edge8" class="edge">
<title>n91914&#45;&gt;n18520</title>
<path fill="none" stroke="black" d="M504.97,-787.51C483.68,-767.48 453.4,-739 430.16,-717.14"/>
<polygon fill="black" stroke="black" points="432.73,-714.75 423.05,-710.45 427.94,-719.85 432.73,-714.75"/>
</g>
<!-- n88840 -->
<g id="node10" class="node">
<title>n88840</title>
<ellipse fill="lightgrey" stroke="black" cx="486" cy="-684" rx="36" ry="36"/>
<text text-anchor="middle" x="486" y="-681.5" font-family="Helvetica,sans-Serif" font-size="10.00">(</text>
</g>
<!-- n91914&#45;&gt;n88840 -->
<g id="edge9" class="edge">
<title>n91914&#45;&gt;n88840</title>
<path fill="none" stroke="black" d="M519.18,-778.63C513.75,-763.32 507.25,-744.96 501.44,-728.58"/>
<polygon fill="black" stroke="black" points="504.89,-727.83 498.25,-719.57 498.29,-730.17 504.89,-727.83"/>
</g>
<!-- n51164 -->
<g id="node11" class="node">
<title>n51164</title>
<ellipse fill="lightgrey" stroke="black" cx="576" cy="-684" rx="36" ry="36"/>
<text text-anchor="middle" x="576" y="-681.5" font-family="Helvetica,sans-Serif" font-size="10.00">edad</text>
</g>
<!-- n91914&#45;&gt;n51164 -->
<g id="edge10" class="edge">
<title>n91914&#45;&gt;n51164</title>
<path fill="none" stroke="black" d="M542.82,-778.63C548.25,-763.32 554.75,-744.96 560.56,-728.58"/>
<polygon fill="black" stroke="black" points="563.71,-730.17 563.75,-719.57 557.11,-727.83 563.71,-730.17"/>
</g>
<!-- n88969 -->
<g id="node12" class="node">
<title>n88969</title>
<ellipse fill="lightgrey" stroke="black" cx="666" cy="-684" rx="36" ry="36"/>
<text text-anchor="middle" x="666" y="-681.5" font-family="Helvetica,sans-Serif" font-size="10.00">)</text>
</g>
<!-- n91914&#45;&gt;n88969 -->
<g id="edge11" class="edge">
<title>n91914&#45;&gt;n88969</title>
<path fill="none" stroke="black" d="M557.03,-787.51C578.32,-767.48 608.6,-739 631.84,-717.14"/>
<polygon fill="black" stroke="black" points="634.06,-719.85 638.95,-710.45 629.27,-714.75 634.06,-719.85"/>
</g>
<!-- n28079 -->
<g id="node13" class="node">
<title>n28079</title>
<ellipse fill="lightgrey" stroke="black" cx="756" cy="-684" rx="36" ry="36"/>
<text text-anchor="middle" x="756" y="-681.5" font-family="Helvetica,sans-Serif" font-size="10.00">Case</text>
</g>
<!-- n91914&#45;&gt;n28079 -->
<g id="edge12" class="edge">
<title>n91914&#45;&gt;n28079</title>
<path fill="none" stroke="black" d="M563.88,-797.48C600.76,-780.68 661.85,-751.28 711,-720 713.74,-718.26 716.52,-716.38 719.28,-714.45"/>
<polygon fill="black" stroke="black" points="721.29,-717.31 727.29,-708.58 717.15,-711.66 721.29,-717.31"/>
</g>
<!-- n48487 -->
<g id="node14" class="node">
<title>n48487</title>
<ellipse fill="lightgrey" stroke="black" cx="463" cy="-556" rx="36" ry="36"/>
<text text-anchor="middle" x="463" y="-553.5" font-family="Helvetica,sans-Serif" font-size="10.00">case</text>
</g>
<!-- n28079&#45;&gt;n48487 -->
<g id="edge13" class="edge">
<title>n28079&#45;&gt;n48487</title>
<path fill="none" stroke="black" d="M729.55,-659.7C723.72,-655.36 717.37,-651.2 711,-648 627.35,-606.02 591.65,-633.98 508,-592 504.91,-590.45 501.84,-588.68 498.82,-586.76"/>
<polygon fill="black" stroke="black" points="500.92,-583.96 490.7,-581.16 496.94,-589.72 500.92,-583.96"/>
</g>
<!-- n53653 -->
<g id="node15" class="node">
<title>n53653</title>
<ellipse fill="lightgrey" stroke="black" cx="553" cy="-556" rx="36" ry="36"/>
<text text-anchor="middle" x="553" y="-553.5" font-family="Helvetica,sans-Serif" font-size="10.00">&lt;</text>
</g>
<!-- n28079&#45;&gt;n53653 -->
<g id="edge14" class="edge">
<title>n28079&#45;&gt;n53653</title>
<path fill="none" stroke="black" d="M728.36,-660.54C722.72,-656.23 716.75,-651.86 711,-648 672.83,-622.35 627.1,-596.5 594.68,-578.95"/>
<polygon fill="black" stroke="black" points="596.45,-575.92 585.98,-574.27 593.13,-582.09 596.45,-575.92"/>
</g>
<!-- n9021 -->
<g id="node18" class="node">
<title>n9021</title>
<ellipse fill="lightgrey" stroke="black" cx="688" cy="-556" rx="36" ry="36"/>
<text text-anchor="middle" x="688" y="-553.5" font-family="Helvetica,sans-Serif" font-size="10.00">Sentencia</text>
</g>
<!-- n28079&#45;&gt;n9021 -->
<g id="edge17" class="edge">
<title>n28079&#45;&gt;n9021</title>
<path fill="none" stroke="black" d="M739.19,-651.85C730.45,-635.65 719.64,-615.63 710.22,-598.16"/>
<polygon fill="black" stroke="black" points="713.4,-596.69 705.57,-589.56 707.24,-600.02 713.4,-596.69"/>
</g>
<!-- n71639 -->
<g id="node26" class="node">
<title>n71639</title>
<ellipse fill="lightgrey" stroke="black" cx="823" cy="-556" rx="36" ry="36"/>
<text text-anchor="middle" x="823" y="-553.5" font-family="Helvetica,sans-Serif" font-size="10.00">Case</text>
</g>
<!-- n28079&#45;&gt;n71639 -->
<g id="edge25" class="edge">
<title>n28079&#45;&gt;n71639</title>
<path fill="none" stroke="black" d="M772.56,-651.85C781.18,-635.65 791.82,-615.63 801.11,-598.16"/>
<polygon fill="black" stroke="black" points="804.08,-600.03 805.69,-589.56 797.9,-596.75 804.08,-600.03"/>
</g>
<!-- n95311 -->
<g id="node37" class="node">
<title>n95311</title>
<ellipse fill="lightgrey" stroke="black" cx="1116" cy="-556" rx="36" ry="36"/>
<text text-anchor="middle" x="1116" y="-553.5" font-family="Helvetica,sans-Serif" font-size="10.00">Case</text>
</g>
<!-- n28079&#45;&gt;n95311 -->
<g id="edge36" class="edge">
<title>n28079&#45;&gt;n95311</title>
<path fill="none" stroke="black" d="M789.87,-671.15C855.13,-648.3 998.3,-598.2 1071.29,-572.65"/>
<polygon fill="black" stroke="black" points="1072.25,-576.02 1080.53,-569.41 1069.94,-569.41 1072.25,-576.02"/>
</g>
<!-- n6646 -->
<g id="node54" class="node">
<title>n6646</title>
<ellipse fill="lightgrey" stroke="black" cx="1633" cy="-556" rx="36" ry="36"/>
<text text-anchor="middle" x="1633" y="-553.5" font-family="Helvetica,sans-Serif" font-size="10.00">Default</text>
</g>
<!-- n28079&#45;&gt;n6646 -->
<g id="edge53" class="edge">
<title>n28079&#45;&gt;n6646</title>
<path fill="none" stroke="black" d="M791.74,-677.87C930.01,-658 1429.92,-586.18 1586.07,-563.74"/>
<polygon fill="black" stroke="black" points="1586.23,-567.26 1595.63,-562.37 1585.24,-560.33 1586.23,-567.26"/>
</g>
<!-- n99857 -->
<g id="node16" class="node">
<title>n99857</title>
<ellipse fill="lightgrey" stroke="black" cx="418" cy="-428" rx="36" ry="36"/>
<text text-anchor="middle" x="418" y="-425.5" font-family="Helvetica,sans-Serif" font-size="10.00">edad</text>
</g>
<!-- n53653&#45;&gt;n99857 -->
<g id="edge15" class="edge">
<title>n53653&#45;&gt;n99857</title>
<path fill="none" stroke="black" d="M526.97,-530.71C505.68,-510.83 475.4,-482.58 452.16,-460.89"/>
<polygon fill="black" stroke="black" points="454.75,-458.52 445.06,-454.25 449.98,-463.63 454.75,-458.52"/>
</g>
<!-- n65820 -->
<g id="node17" class="node">
<title>n65820</title>
<ellipse fill="lightgrey" stroke="black" cx="508" cy="-428" rx="36" ry="36"/>
<text text-anchor="middle" x="508" y="-425.5" font-family="Helvetica,sans-Serif" font-size="10.00">18</text>
</g>
<!-- n53653&#45;&gt;n65820 -->
<g id="edge16" class="edge">
<title>n53653&#45;&gt;n65820</title>
<path fill="none" stroke="black" d="M541.06,-521.57C535.73,-506.64 529.37,-488.85 523.67,-472.87"/>
<polygon fill="black" stroke="black" points="527.01,-471.82 520.35,-463.58 520.42,-474.17 527.01,-471.82"/>
</g>
<!-- n67111 -->
<g id="node19" class="node">
<title>n67111</title>
<ellipse fill="lightgrey" stroke="black" cx="598" cy="-428" rx="36" ry="36"/>
<text text-anchor="middle" x="598" y="-425.5" font-family="Helvetica,sans-Serif" font-size="10.00">Print</text>
</g>
<!-- n9021&#45;&gt;n67111 -->
<g id="edge18" class="edge">
<title>n9021&#45;&gt;n67111</title>
<path fill="none" stroke="black" d="M667.35,-526.09C654.83,-508.57 638.71,-486 625.17,-467.03"/>
<polygon fill="black" stroke="black" points="628.09,-465.11 619.43,-459 622.4,-469.18 628.09,-465.11"/>
</g>
<!-- n64475 -->
<g id="node25" class="node">
<title>n64475</title>
<ellipse fill="lightgrey" stroke="black" cx="688" cy="-428" rx="36" ry="36"/>
<text text-anchor="middle" x="688" y="-425.5" font-family="Helvetica,sans-Serif" font-size="10.00">Break</text>
</g>
<!-- n9021&#45;&gt;n64475 -->
<g id="edge24" class="edge">
<title>n9021&#45;&gt;n64475</title>
<path fill="none" stroke="black" d="M688,-519.57C688,-505.9 688,-490.07 688,-475.51"/>
<polygon fill="black" stroke="black" points="691.5,-475.68 688,-465.68 684.5,-475.68 691.5,-475.68"/>
</g>
<!-- n2616 -->
<g id="node20" class="node">
<title>n2616</title>
<ellipse fill="lightgrey" stroke="black" cx="418" cy="-299" rx="36" ry="36"/>
<text text-anchor="middle" x="418" y="-296.5" font-family="Helvetica,sans-Serif" font-size="10.00">print</text>
</g>
<!-- n67111&#45;&gt;n2616 -->
<g id="edge19" class="edge">
<title>n67111&#45;&gt;n2616</title>
<path fill="none" stroke="black" d="M570.23,-404.73C564.6,-400.41 558.67,-395.98 553,-392 514.27,-364.77 501.73,-362.23 463,-335 460.34,-333.13 457.63,-331.17 454.91,-329.16"/>
<polygon fill="black" stroke="black" points="457.07,-326.41 446.98,-323.18 452.86,-332 457.07,-326.41"/>
</g>
<!-- n39329 -->
<g id="node21" class="node">
<title>n39329</title>
<ellipse fill="lightgrey" stroke="black" cx="508" cy="-299" rx="36" ry="36"/>
<text text-anchor="middle" x="508" y="-296.5" font-family="Helvetica,sans-Serif" font-size="10.00">(</text>
</g>
<!-- n67111&#45;&gt;n39329 -->
<g id="edge20" class="edge">
<title>n67111&#45;&gt;n39329</title>
<path fill="none" stroke="black" d="M577.58,-398.18C564.92,-380.32 548.52,-357.18 534.82,-337.85"/>
<polygon fill="black" stroke="black" points="537.85,-336.07 529.22,-329.94 532.14,-340.12 537.85,-336.07"/>
</g>
<!-- n91499 -->
<g id="node22" class="node">
<title>n91499</title>
<ellipse fill="lightgrey" stroke="black" cx="598" cy="-299" rx="36" ry="36"/>
<text text-anchor="middle" x="598" y="-296.5" font-family="Helvetica,sans-Serif" font-size="10.00">Expresion</text>
</g>
<!-- n67111&#45;&gt;n91499 -->
<g id="edge21" class="edge">
<title>n67111&#45;&gt;n91499</title>
<path fill="none" stroke="black" d="M598,-391.62C598,-377.59 598,-361.25 598,-346.3"/>
<polygon fill="black" stroke="black" points="601.5,-346.7 598,-336.7 594.5,-346.7 601.5,-346.7"/>
</g>
<!-- n88947 -->
<g id="node24" class="node">
<title>n88947</title>
<ellipse fill="lightgrey" stroke="black" cx="688" cy="-299" rx="36" ry="36"/>
<text text-anchor="middle" x="688" y="-296.5" font-family="Helvetica,sans-Serif" font-size="10.00">)</text>
</g>
<!-- n67111&#45;&gt;n88947 -->
<g id="edge23" class="edge">
<title>n67111&#45;&gt;n88947</title>
<path fill="none" stroke="black" d="M618.42,-398.18C631.08,-380.32 647.48,-357.18 661.18,-337.85"/>
<polygon fill="black" stroke="black" points="663.86,-340.12 666.78,-329.94 658.15,-336.07 663.86,-340.12"/>
</g>
<!-- n19131 -->
<g id="node23" class="node">
<title>n19131</title>
<ellipse fill="lightgrey" stroke="black" cx="553" cy="-171" rx="36" ry="36"/>
<text text-anchor="middle" x="553" y="-168.5" font-family="Helvetica,sans-Serif" font-size="10.00">Soy menor de edad</text>
</g>
<!-- n91499&#45;&gt;n19131 -->
<g id="edge22" class="edge">
<title>n91499&#45;&gt;n19131</title>
<path fill="none" stroke="black" d="M586.06,-264.57C580.73,-249.64 574.37,-231.85 568.67,-215.87"/>
<polygon fill="black" stroke="black" points="572.01,-214.82 565.35,-206.58 565.42,-217.17 572.01,-214.82"/>
</g>
<!-- n66669 -->
<g id="node27" class="node">
<title>n66669</title>
<ellipse fill="lightgrey" stroke="black" cx="778" cy="-428" rx="36" ry="36"/>
<text text-anchor="middle" x="778" y="-425.5" font-family="Helvetica,sans-Serif" font-size="10.00">case</text>
</g>
<!-- n71639&#45;&gt;n66669 -->
<g id="edge26" class="edge">
<title>n71639&#45;&gt;n66669</title>
<path fill="none" stroke="black" d="M811.06,-521.57C805.73,-506.64 799.37,-488.85 793.67,-472.87"/>
<polygon fill="black" stroke="black" points="797.01,-471.82 790.35,-463.58 790.42,-474.17 797.01,-471.82"/>
</g>
<!-- n51918 -->
<g id="node28" class="node">
<title>n51918</title>
<ellipse fill="lightgrey" stroke="black" cx="868" cy="-428" rx="36" ry="36"/>
<text text-anchor="middle" x="868" y="-425.5" font-family="Helvetica,sans-Serif" font-size="10.00">18</text>
</g>
<!-- n71639&#45;&gt;n51918 -->
<g id="edge27" class="edge">
<title>n71639&#45;&gt;n51918</title>
<path fill="none" stroke="black" d="M834.94,-521.57C840.27,-506.64 846.63,-488.85 852.33,-472.87"/>
<polygon fill="black" stroke="black" points="855.58,-474.17 855.65,-463.58 848.99,-471.82 855.58,-474.17"/>
</g>
<!-- n89751 -->
<g id="node29" class="node">
<title>n89751</title>
<ellipse fill="lightgrey" stroke="black" cx="958" cy="-428" rx="36" ry="36"/>
<text text-anchor="middle" x="958" y="-425.5" font-family="Helvetica,sans-Serif" font-size="10.00">Sentencia</text>
</g>
<!-- n71639&#45;&gt;n89751 -->
<g id="edge28" class="edge">
<title>n71639&#45;&gt;n89751</title>
<path fill="none" stroke="black" d="M849.03,-530.71C870.32,-510.83 900.6,-482.58 923.84,-460.89"/>
<polygon fill="black" stroke="black" points="926.02,-463.63 930.94,-454.25 921.25,-458.52 926.02,-463.63"/>
</g>
<!-- n28270 -->
<g id="node30" class="node">
<title>n28270</title>
<ellipse fill="lightgrey" stroke="black" cx="823" cy="-299" rx="36" ry="36"/>
<text text-anchor="middle" x="823" y="-296.5" font-family="Helvetica,sans-Serif" font-size="10.00">Print</text>
</g>
<!-- n89751&#45;&gt;n28270 -->
<g id="edge29" class="edge">
<title>n89751&#45;&gt;n28270</title>
<path fill="none" stroke="black" d="M931.97,-402.51C910.68,-382.48 880.4,-354 857.16,-332.14"/>
<polygon fill="black" stroke="black" points="859.73,-329.75 850.05,-325.45 854.94,-334.85 859.73,-329.75"/>
</g>
<!-- n51740 -->
<g id="node36" class="node">
<title>n51740</title>
<ellipse fill="lightgrey" stroke="black" cx="958" cy="-299" rx="36" ry="36"/>
<text text-anchor="middle" x="958" y="-296.5" font-family="Helvetica,sans-Serif" font-size="10.00">Break</text>
</g>
<!-- n89751&#45;&gt;n51740 -->
<g id="edge35" class="edge">
<title>n89751&#45;&gt;n51740</title>
<path fill="none" stroke="black" d="M958,-391.62C958,-377.59 958,-361.25 958,-346.3"/>
<polygon fill="black" stroke="black" points="961.5,-346.7 958,-336.7 954.5,-346.7 961.5,-346.7"/>
</g>
<!-- n49167 -->
<g id="node31" class="node">
<title>n49167</title>
<ellipse fill="lightgrey" stroke="black" cx="643" cy="-171" rx="36" ry="36"/>
<text text-anchor="middle" x="643" y="-168.5" font-family="Helvetica,sans-Serif" font-size="10.00">print</text>
</g>
<!-- n28270&#45;&gt;n49167 -->
<g id="edge30" class="edge">
<title>n28270&#45;&gt;n49167</title>
<path fill="none" stroke="black" d="M792.84,-278.51C765.21,-260.46 723.36,-232.62 688,-207 685.37,-205.09 682.68,-203.1 679.98,-201.08"/>
<polygon fill="black" stroke="black" points="682.14,-198.33 672.07,-195.06 677.9,-203.9 682.14,-198.33"/>
</g>
<!-- n64062 -->
<g id="node32" class="node">
<title>n64062</title>
<ellipse fill="lightgrey" stroke="black" cx="733" cy="-171" rx="36" ry="36"/>
<text text-anchor="middle" x="733" y="-168.5" font-family="Helvetica,sans-Serif" font-size="10.00">(</text>
</g>
<!-- n28270&#45;&gt;n64062 -->
<g id="edge31" class="edge">
<title>n28270&#45;&gt;n64062</title>
<path fill="none" stroke="black" d="M802.35,-269.09C789.83,-251.57 773.71,-229 760.17,-210.03"/>
<polygon fill="black" stroke="black" points="763.09,-208.11 754.43,-202 757.4,-212.18 763.09,-208.11"/>
</g>
<!-- n66800 -->
<g id="node33" class="node">
<title>n66800</title>
<ellipse fill="lightgrey" stroke="black" cx="823" cy="-171" rx="36" ry="36"/>
<text text-anchor="middle" x="823" y="-168.5" font-family="Helvetica,sans-Serif" font-size="10.00">Expresion</text>
</g>
<!-- n28270&#45;&gt;n66800 -->
<g id="edge32" class="edge">
<title>n28270&#45;&gt;n66800</title>
<path fill="none" stroke="black" d="M823,-262.57C823,-248.9 823,-233.07 823,-218.51"/>
<polygon fill="black" stroke="black" points="826.5,-218.68 823,-208.68 819.5,-218.68 826.5,-218.68"/>
</g>
<!-- n28962 -->
<g id="node35" class="node">
<title>n28962</title>
<ellipse fill="lightgrey" stroke="black" cx="913" cy="-171" rx="36" ry="36"/>
<text text-anchor="middle" x="913" y="-168.5" font-family="Helvetica,sans-Serif" font-size="10.00">)</text>
</g>
<!-- n28270&#45;&gt;n28962 -->
<g id="edge34" class="edge">
<title>n28270&#45;&gt;n28962</title>
<path fill="none" stroke="black" d="M843.65,-269.09C856.17,-251.57 872.29,-229 885.83,-210.03"/>
<polygon fill="black" stroke="black" points="888.6,-212.18 891.57,-202 882.91,-208.11 888.6,-212.18"/>
</g>
<!-- n43306 -->
<g id="node34" class="node">
<title>n43306</title>
<ellipse fill="lightgrey" stroke="black" cx="823" cy="-43" rx="36" ry="36"/>
<text text-anchor="middle" x="823" y="-40.5" font-family="Helvetica,sans-Serif" font-size="10.00">Acabo de cumplir 18 años</text>
</g>
<!-- n66800&#45;&gt;n43306 -->
<g id="edge33" class="edge">
<title>n66800&#45;&gt;n43306</title>
<path fill="none" stroke="black" d="M823,-134.57C823,-120.9 823,-105.07 823,-90.51"/>
<polygon fill="black" stroke="black" points="826.5,-90.68 823,-80.68 819.5,-90.68 826.5,-90.68"/>
</g>
<!-- n92291 -->
<g id="node38" class="node">
<title>n92291</title>
<ellipse fill="lightgrey" stroke="black" cx="1071" cy="-428" rx="36" ry="36"/>
<text text-anchor="middle" x="1071" y="-425.5" font-family="Helvetica,sans-Serif" font-size="10.00">case</text>
</g>
<!-- n95311&#45;&gt;n92291 -->
<g id="edge37" class="edge">
<title>n95311&#45;&gt;n92291</title>
<path fill="none" stroke="black" d="M1104.06,-521.57C1098.73,-506.64 1092.37,-488.85 1086.67,-472.87"/>
<polygon fill="black" stroke="black" points="1090.01,-471.82 1083.35,-463.58 1083.42,-474.17 1090.01,-471.82"/>
</g>
<!-- n50050 -->
<g id="node39" class="node">
<title>n50050</title>
<ellipse fill="lightgrey" stroke="black" cx="1161" cy="-428" rx="36" ry="36"/>
<text text-anchor="middle" x="1161" y="-425.5" font-family="Helvetica,sans-Serif" font-size="10.00">&amp;&amp;</text>
</g>
<!-- n95311&#45;&gt;n50050 -->
<g id="edge38" class="edge">
<title>n95311&#45;&gt;n50050</title>
<path fill="none" stroke="black" d="M1127.94,-521.57C1133.27,-506.64 1139.63,-488.85 1145.33,-472.87"/>
<polygon fill="black" stroke="black" points="1148.58,-474.17 1148.65,-463.58 1141.99,-471.82 1148.58,-474.17"/>
</g>
<!-- n32164 -->
<g id="node46" class="node">
<title>n32164</title>
<ellipse fill="lightgrey" stroke="black" cx="1453" cy="-428" rx="36" ry="36"/>
<text text-anchor="middle" x="1453" y="-425.5" font-family="Helvetica,sans-Serif" font-size="10.00">Sentencia</text>
</g>
<!-- n95311&#45;&gt;n32164 -->
<g id="edge45" class="edge">
<title>n95311&#45;&gt;n32164</title>
<path fill="none" stroke="black" d="M1149.54,-542.46C1210.78,-519.56 1340.65,-471.01 1408.93,-445.48"/>
<polygon fill="black" stroke="black" points="1409.78,-448.9 1417.92,-442.11 1407.33,-442.34 1409.78,-448.9"/>
</g>
<!-- n61999 -->
<g id="node40" class="node">
<title>n61999</title>
<ellipse fill="lightgrey" stroke="black" cx="1093" cy="-299" rx="36" ry="36"/>
<text text-anchor="middle" x="1093" y="-296.5" font-family="Helvetica,sans-Serif" font-size="10.00">&gt;</text>
</g>
<!-- n50050&#45;&gt;n61999 -->
<g id="edge39" class="edge">
<title>n50050&#45;&gt;n61999</title>
<path fill="none" stroke="black" d="M1144.19,-395.61C1135.38,-379.15 1124.48,-358.79 1115,-341.09"/>
<polygon fill="black" stroke="black" points="1118.14,-339.53 1110.33,-332.37 1111.96,-342.83 1118.14,-339.53"/>
</g>
<!-- n86264 -->
<g id="node43" class="node">
<title>n86264</title>
<ellipse fill="lightgrey" stroke="black" cx="1183" cy="-299" rx="36" ry="36"/>
<text text-anchor="middle" x="1183" y="-296.5" font-family="Helvetica,sans-Serif" font-size="10.00">&lt;</text>
</g>
<!-- n50050&#45;&gt;n86264 -->
<g id="edge42" class="edge">
<title>n50050&#45;&gt;n86264</title>
<path fill="none" stroke="black" d="M1167.01,-392.3C1169.49,-378.02 1172.39,-361.27 1175.03,-345.99"/>
<polygon fill="black" stroke="black" points="1178.48,-346.6 1176.74,-336.15 1171.58,-345.41 1178.48,-346.6"/>
</g>
<!-- n19239 -->
<g id="node41" class="node">
<title>n19239</title>
<ellipse fill="lightgrey" stroke="black" cx="1003" cy="-171" rx="36" ry="36"/>
<text text-anchor="middle" x="1003" y="-168.5" font-family="Helvetica,sans-Serif" font-size="10.00">edad</text>
</g>
<!-- n61999&#45;&gt;n19239 -->
<g id="edge40" class="edge">
<title>n61999&#45;&gt;n19239</title>
<path fill="none" stroke="black" d="M1072.35,-269.09C1059.83,-251.57 1043.71,-229 1030.17,-210.03"/>
<polygon fill="black" stroke="black" points="1033.09,-208.11 1024.43,-202 1027.4,-212.18 1033.09,-208.11"/>
</g>
<!-- n51962 -->
<g id="node42" class="node">
<title>n51962</title>
<ellipse fill="lightgrey" stroke="black" cx="1093" cy="-171" rx="36" ry="36"/>
<text text-anchor="middle" x="1093" y="-168.5" font-family="Helvetica,sans-Serif" font-size="10.00">18</text>
</g>
<!-- n61999&#45;&gt;n51962 -->
<g id="edge41" class="edge">
<title>n61999&#45;&gt;n51962</title>
<path fill="none" stroke="black" d="M1093,-262.57C1093,-248.9 1093,-233.07 1093,-218.51"/>
<polygon fill="black" stroke="black" points="1096.5,-218.68 1093,-208.68 1089.5,-218.68 1096.5,-218.68"/>
</g>
<!-- n91908 -->
<g id="node44" class="node">
<title>n91908</title>
<ellipse fill="lightgrey" stroke="black" cx="1183" cy="-171" rx="36" ry="36"/>
<text text-anchor="middle" x="1183" y="-168.5" font-family="Helvetica,sans-Serif" font-size="10.00">edad</text>
</g>
<!-- n86264&#45;&gt;n91908 -->
<g id="edge43" class="edge">
<title>n86264&#45;&gt;n91908</title>
<path fill="none" stroke="black" d="M1183,-262.57C1183,-248.9 1183,-233.07 1183,-218.51"/>
<polygon fill="black" stroke="black" points="1186.5,-218.68 1183,-208.68 1179.5,-218.68 1186.5,-218.68"/>
</g>
<!-- n25571 -->
<g id="node45" class="node">
<title>n25571</title>
<ellipse fill="lightgrey" stroke="black" cx="1273" cy="-171" rx="36" ry="36"/>
<text text-anchor="middle" x="1273" y="-168.5" font-family="Helvetica,sans-Serif" font-size="10.00">30</text>
</g>
<!-- n86264&#45;&gt;n25571 -->
<g id="edge44" class="edge">
<title>n86264&#45;&gt;n25571</title>
<path fill="none" stroke="black" d="M1203.65,-269.09C1216.17,-251.57 1232.29,-229 1245.83,-210.03"/>
<polygon fill="black" stroke="black" points="1248.6,-212.18 1251.57,-202 1242.91,-208.11 1248.6,-212.18"/>
</g>
<!-- n15189 -->
<g id="node47" class="node">
<title>n15189</title>
<ellipse fill="lightgrey" stroke="black" cx="1453" cy="-299" rx="36" ry="36"/>
<text text-anchor="middle" x="1453" y="-296.5" font-family="Helvetica,sans-Serif" font-size="10.00">Print</text>
</g>
<!-- n32164&#45;&gt;n15189 -->
<g id="edge46" class="edge">
<title>n32164&#45;&gt;n15189</title>
<path fill="none" stroke="black" d="M1453,-391.62C1453,-377.59 1453,-361.25 1453,-346.3"/>
<polygon fill="black" stroke="black" points="1456.5,-346.7 1453,-336.7 1449.5,-346.7 1456.5,-346.7"/>
</g>
<!-- n21900 -->
<g id="node53" class="node">
<title>n21900</title>
<ellipse fill="lightgrey" stroke="black" cx="1543" cy="-299" rx="36" ry="36"/>
<text text-anchor="middle" x="1543" y="-296.5" font-family="Helvetica,sans-Serif" font-size="10.00">Break</text>
</g>
<!-- n32164&#45;&gt;n21900 -->
<g id="edge52" class="edge">
<title>n32164&#45;&gt;n21900</title>
<path fill="none" stroke="black" d="M1473.42,-398.18C1486.08,-380.32 1502.48,-357.18 1516.18,-337.85"/>
<polygon fill="black" stroke="black" points="1518.86,-340.12 1521.78,-329.94 1513.15,-336.07 1518.86,-340.12"/>
</g>
<!-- n87861 -->
<g id="node48" class="node">
<title>n87861</title>
<ellipse fill="lightgrey" stroke="black" cx="1363" cy="-171" rx="36" ry="36"/>
<text text-anchor="middle" x="1363" y="-168.5" font-family="Helvetica,sans-Serif" font-size="10.00">print</text>
</g>
<!-- n15189&#45;&gt;n87861 -->
<g id="edge47" class="edge">
<title>n15189&#45;&gt;n87861</title>
<path fill="none" stroke="black" d="M1432.35,-269.09C1419.83,-251.57 1403.71,-229 1390.17,-210.03"/>
<polygon fill="black" stroke="black" points="1393.09,-208.11 1384.43,-202 1387.4,-212.18 1393.09,-208.11"/>
</g>
<!-- n77211 -->
<g id="node49" class="node">
<title>n77211</title>
<ellipse fill="lightgrey" stroke="black" cx="1453" cy="-171" rx="36" ry="36"/>
<text text-anchor="middle" x="1453" y="-168.5" font-family="Helvetica,sans-Serif" font-size="10.00">(</text>
</g>
<!-- n15189&#45;&gt;n77211 -->
<g id="edge48" class="edge">
<title>n15189&#45;&gt;n77211</title>
<path fill="none" stroke="black" d="M1453,-262.57C1453,-248.9 1453,-233.07 1453,-218.51"/>
<polygon fill="black" stroke="black" points="1456.5,-218.68 1453,-208.68 1449.5,-218.68 1456.5,-218.68"/>
</g>
<!-- n25800 -->
<g id="node50" class="node">
<title>n25800</title>
<ellipse fill="lightgrey" stroke="black" cx="1543" cy="-171" rx="36" ry="36"/>
<text text-anchor="middle" x="1543" y="-168.5" font-family="Helvetica,sans-Serif" font-size="10.00">Expresion</text>
</g>
<!-- n15189&#45;&gt;n25800 -->
<g id="edge49" class="edge">
<title>n15189&#45;&gt;n25800</title>
<path fill="none" stroke="black" d="M1473.65,-269.09C1486.17,-251.57 1502.29,-229 1515.83,-210.03"/>
<polygon fill="black" stroke="black" points="1518.6,-212.18 1521.57,-202 1512.91,-208.11 1518.6,-212.18"/>
</g>
<!-- n28233 -->
<g id="node52" class="node">
<title>n28233</title>
<ellipse fill="lightgrey" stroke="black" cx="1633" cy="-171" rx="36" ry="36"/>
<text text-anchor="middle" x="1633" y="-168.5" font-family="Helvetica,sans-Serif" font-size="10.00">)</text>
</g>
<!-- n15189&#45;&gt;n28233 -->
<g id="edge51" class="edge">
<title>n15189&#45;&gt;n28233</title>
<path fill="none" stroke="black" d="M1480.75,-275.69C1486.38,-271.37 1492.32,-266.96 1498,-263 1536.65,-236.06 1549.35,-233.94 1588,-207 1590.66,-205.14 1593.38,-203.19 1596.1,-201.19"/>
<polygon fill="black" stroke="black" points="1598.16,-204.02 1604.04,-195.22 1593.95,-198.43 1598.16,-204.02"/>
</g>
<!-- n16507 -->
<g id="node51" class="node">
<title>n16507</title>
<ellipse fill="lightgrey" stroke="black" cx="1543" cy="-43" rx="36" ry="36"/>
<text text-anchor="middle" x="1543" y="-40.5" font-family="Helvetica,sans-Serif" font-size="10.00">Soy mayor de 18 años</text>
</g>
<!-- n25800&#45;&gt;n16507 -->
<g id="edge50" class="edge">
<title>n25800&#45;&gt;n16507</title>
<path fill="none" stroke="black" d="M1543,-134.57C1543,-120.9 1543,-105.07 1543,-90.51"/>
<polygon fill="black" stroke="black" points="1546.5,-90.68 1543,-80.68 1539.5,-90.68 1546.5,-90.68"/>
</g>
<!-- n34626 -->
<g id="node55" class="node">
<title>n34626</title>
<ellipse fill="lightgrey" stroke="black" cx="1633" cy="-428" rx="36" ry="36"/>
<text text-anchor="middle" x="1633" y="-425.5" font-family="Helvetica,sans-Serif" font-size="10.00">default</text>
</g>
<!-- n6646&#45;&gt;n34626 -->
<g id="edge54" class="edge">
<title>n6646&#45;&gt;n34626</title>
<path fill="none" stroke="black" d="M1633,-519.57C1633,-505.9 1633,-490.07 1633,-475.51"/>
<polygon fill="black" stroke="black" points="1636.5,-475.68 1633,-465.68 1629.5,-475.68 1636.5,-475.68"/>
</g>
<!-- n44624 -->
<g id="node56" class="node">
<title>n44624</title>
<ellipse fill="lightgrey" stroke="black" cx="1813" cy="-428" rx="36" ry="36"/>
<text text-anchor="middle" x="1813" y="-425.5" font-family="Helvetica,sans-Serif" font-size="10.00">Sentencia</text>
</g>
<!-- n6646&#45;&gt;n44624 -->
<g id="edge55" class="edge">
<title>n6646&#45;&gt;n44624</title>
<path fill="none" stroke="black" d="M1662.32,-534.48C1692.92,-513.06 1741.02,-479.38 1774.63,-455.86"/>
<polygon fill="black" stroke="black" points="1776.27,-458.99 1782.45,-450.38 1772.25,-453.25 1776.27,-458.99"/>
</g>
<!-- n72843 -->
<g id="node57" class="node">
<title>n72843</title>
<ellipse fill="lightgrey" stroke="black" cx="1813" cy="-299" rx="36" ry="36"/>
<text text-anchor="middle" x="1813" y="-296.5" font-family="Helvetica,sans-Serif" font-size="10.00">Print</text>
</g>
<!-- n44624&#45;&gt;n72843 -->
<g id="edge56" class="edge">
<title>n44624&#45;&gt;n72843</title>
<path fill="none" stroke="black" d="M1813,-391.62C1813,-377.59 1813,-361.25 1813,-346.3"/>
<polygon fill="black" stroke="black" points="1816.5,-346.7 1813,-336.7 1809.5,-346.7 1816.5,-346.7"/>
</g>
<!-- n91376 -->
<g id="node63" class="node">
<title>n91376</title>
<ellipse fill="lightgrey" stroke="black" cx="1903" cy="-299" rx="36" ry="36"/>
<text text-anchor="middle" x="1903" y="-296.5" font-family="Helvetica,sans-Serif" font-size="10.00">Break</text>
</g>
<!-- n44624&#45;&gt;n91376 -->
<g id="edge62" class="edge">
<title>n44624&#45;&gt;n91376</title>
<path fill="none" stroke="black" d="M1833.42,-398.18C1846.08,-380.32 1862.48,-357.18 1876.18,-337.85"/>
<polygon fill="black" stroke="black" points="1878.86,-340.12 1881.78,-329.94 1873.15,-336.07 1878.86,-340.12"/>
</g>
<!-- n39108 -->
<g id="node58" class="node">
<title>n39108</title>
<ellipse fill="lightgrey" stroke="black" cx="1723" cy="-171" rx="36" ry="36"/>
<text text-anchor="middle" x="1723" y="-168.5" font-family="Helvetica,sans-Serif" font-size="10.00">print</text>
</g>
<!-- n72843&#45;&gt;n39108 -->
<g id="edge57" class="edge">
<title>n72843&#45;&gt;n39108</title>
<path fill="none" stroke="black" d="M1792.35,-269.09C1779.83,-251.57 1763.71,-229 1750.17,-210.03"/>
<polygon fill="black" stroke="black" points="1753.09,-208.11 1744.43,-202 1747.4,-212.18 1753.09,-208.11"/>
</g>
<!-- n54284 -->
<g id="node59" class="node">
<title>n54284</title>
<ellipse fill="lightgrey" stroke="black" cx="1813" cy="-171" rx="36" ry="36"/>
<text text-anchor="middle" x="1813" y="-168.5" font-family="Helvetica,sans-Serif" font-size="10.00">(</text>
</g>
<!-- n72843&#45;&gt;n54284 -->
<g id="edge58" class="edge">
<title>n72843&#45;&gt;n54284</title>
<path fill="none" stroke="black" d="M1813,-262.57C1813,-248.9 1813,-233.07 1813,-218.51"/>
<polygon fill="black" stroke="black" points="1816.5,-218.68 1813,-208.68 1809.5,-218.68 1816.5,-218.68"/>
</g>
<!-- n60987 -->
<g id="node60" class="node">
<title>n60987</title>
<ellipse fill="lightgrey" stroke="black" cx="1903" cy="-171" rx="36" ry="36"/>
<text text-anchor="middle" x="1903" y="-168.5" font-family="Helvetica,sans-Serif" font-size="10.00">Expresion</text>
</g>
<!-- n72843&#45;&gt;n60987 -->
<g id="edge59" class="edge">
<title>n72843&#45;&gt;n60987</title>
<path fill="none" stroke="black" d="M1833.65,-269.09C1846.17,-251.57 1862.29,-229 1875.83,-210.03"/>
<polygon fill="black" stroke="black" points="1878.6,-212.18 1881.57,-202 1872.91,-208.11 1878.6,-212.18"/>
</g>
<!-- n33518 -->
<g id="node62" class="node">
<title>n33518</title>
<ellipse fill="lightgrey" stroke="black" cx="1993" cy="-171" rx="36" ry="36"/>
<text text-anchor="middle" x="1993" y="-168.5" font-family="Helvetica,sans-Serif" font-size="10.00">)</text>
</g>
<!-- n72843&#45;&gt;n33518 -->
<g id="edge61" class="edge">
<title>n72843&#45;&gt;n33518</title>
<path fill="none" stroke="black" d="M1840.75,-275.69C1846.38,-271.37 1852.32,-266.96 1858,-263 1896.65,-236.06 1909.35,-233.94 1948,-207 1950.66,-205.14 1953.38,-203.19 1956.1,-201.19"/>
<polygon fill="black" stroke="black" points="1958.16,-204.02 1964.04,-195.22 1953.95,-198.43 1958.16,-204.02"/>
</g>
<!-- n1267 -->
<g id="node61" class="node">
<title>n1267</title>
<ellipse fill="lightgrey" stroke="black" cx="1903" cy="-43" rx="36" ry="36"/>
<text text-anchor="middle" x="1903" y="-40.5" font-family="Helvetica,sans-Serif" font-size="10.00">Ya estoy viejo</text>
</g>
<!-- n60987&#45;&gt;n1267 -->
<g id="edge60" class="edge">
<title>n60987&#45;&gt;n1267</title>
<path fill="none" stroke="black" d="M1903,-134.57C1903,-120.9 1903,-105.07 1903,-90.51"/>
<polygon fill="black" stroke="black" points="1906.5,-90.68 1903,-80.68 1899.5,-90.68 1906.5,-90.68"/>
</g>
</g>
</svg>
