<?xml version="1.0" encoding="UTF-8" standalone="no"?>
<!DOCTYPE svg PUBLIC "-//W3C//DTD SVG 1.1//EN"
 "http://www.w3.org/Graphics/SVG/1.1/DTD/svg11.dtd">
<!-- Generated by graphviz version 7.1.0 (20230121.1956)
 -->
<!-- Title: G Pages: 1 -->
<svg width="391pt" height="396pt"
 viewBox="0.00 0.00 391.00 396.00" xmlns="http://www.w3.org/2000/svg" xmlns:xlink="http://www.w3.org/1999/xlink">
<g id="graph0" class="graph" transform="scale(1 1) rotate(0) translate(4 392)">
<title>G</title>
<polygon fill="white" stroke="none" points="-4,4 -4,-392 387,-392 387,4 -4,4"/>
<!-- table -->
<g id="node1" class="node">
<title>table</title>
<polygon fill="none" stroke="black" points="9.5,-362 9.5,-383 54.5,-383 54.5,-362 9.5,-362"/>
<text text-anchor="start" x="18" y="-368.8" font-family="Times New Roman,serif" font-size="14.00">Tipo</text>
<polygon fill="none" stroke="black" points="54.5,-362 54.5,-383 280.5,-383 280.5,-362 54.5,-362"/>
<text text-anchor="start" x="133.5" y="-368.8" font-family="Times New Roman,serif" font-size="14.00">Descripcion</text>
<polygon fill="none" stroke="black" points="280.5,-362 280.5,-383 317.5,-383 317.5,-362 280.5,-362"/>
<text text-anchor="start" x="283.5" y="-368.8" font-family="Times New Roman,serif" font-size="14.00">Linea</text>
<polygon fill="none" stroke="black" points="317.5,-362 317.5,-383 374.5,-383 374.5,-362 317.5,-362"/>
<text text-anchor="start" x="320.5" y="-368.8" font-family="Times New Roman,serif" font-size="14.00">Columna</text>
<polygon fill="none" stroke="black" points="9.5,-341 9.5,-362 54.5,-362 54.5,-341 9.5,-341"/>
<text text-anchor="start" x="12.5" y="-347.8" font-family="Times New Roman,serif" font-size="14.00">Lexico</text>
<polygon fill="none" stroke="black" points="54.5,-341 54.5,-362 280.5,-362 280.5,-341 54.5,-341"/>
<text text-anchor="start" x="57.5" y="-347.8" font-family="Times New Roman,serif" font-size="14.00">El caracter: &quot;°&quot; no pertenece al lenguaje</text>
<polygon fill="none" stroke="black" points="280.5,-341 280.5,-362 317.5,-362 317.5,-341 280.5,-341"/>
<text text-anchor="start" x="292" y="-347.8" font-family="Times New Roman,serif" font-size="14.00">19</text>
<polygon fill="none" stroke="black" points="317.5,-341 317.5,-362 374.5,-362 374.5,-341 317.5,-341"/>
<text text-anchor="start" x="342.5" y="-347.8" font-family="Times New Roman,serif" font-size="14.00">0</text>
<polygon fill="none" stroke="black" points="9.5,-320 9.5,-341 54.5,-341 54.5,-320 9.5,-320"/>
<text text-anchor="start" x="12.5" y="-326.8" font-family="Times New Roman,serif" font-size="14.00">Lexico</text>
<polygon fill="none" stroke="black" points="54.5,-320 54.5,-341 280.5,-341 280.5,-320 54.5,-320"/>
<text text-anchor="start" x="57.5" y="-326.8" font-family="Times New Roman,serif" font-size="14.00">El caracter: &quot;°&quot; no pertenece al lenguaje</text>
<polygon fill="none" stroke="black" points="280.5,-320 280.5,-341 317.5,-341 317.5,-320 280.5,-320"/>
<text text-anchor="start" x="292" y="-326.8" font-family="Times New Roman,serif" font-size="14.00">19</text>
<polygon fill="none" stroke="black" points="317.5,-320 317.5,-341 374.5,-341 374.5,-320 317.5,-320"/>
<text text-anchor="start" x="342.5" y="-326.8" font-family="Times New Roman,serif" font-size="14.00">1</text>
<polygon fill="none" stroke="black" points="9.5,-299 9.5,-320 54.5,-320 54.5,-299 9.5,-299"/>
<text text-anchor="start" x="12.5" y="-305.8" font-family="Times New Roman,serif" font-size="14.00">Lexico</text>
<polygon fill="none" stroke="black" points="54.5,-299 54.5,-320 280.5,-320 280.5,-299 54.5,-299"/>
<text text-anchor="start" x="57.5" y="-305.8" font-family="Times New Roman,serif" font-size="14.00">El caracter: &quot;°&quot; no pertenece al lenguaje</text>
<polygon fill="none" stroke="black" points="280.5,-299 280.5,-320 317.5,-320 317.5,-299 280.5,-299"/>
<text text-anchor="start" x="292" y="-305.8" font-family="Times New Roman,serif" font-size="14.00">19</text>
<polygon fill="none" stroke="black" points="317.5,-299 317.5,-320 374.5,-320 374.5,-299 317.5,-299"/>
<text text-anchor="start" x="342.5" y="-305.8" font-family="Times New Roman,serif" font-size="14.00">2</text>
<polygon fill="none" stroke="black" points="9.5,-278 9.5,-299 54.5,-299 54.5,-278 9.5,-278"/>
<text text-anchor="start" x="12.5" y="-284.8" font-family="Times New Roman,serif" font-size="14.00">Lexico</text>
<polygon fill="none" stroke="black" points="54.5,-278 54.5,-299 280.5,-299 280.5,-278 54.5,-278"/>
<text text-anchor="start" x="57.5" y="-284.8" font-family="Times New Roman,serif" font-size="14.00">El caracter: &quot;°&quot; no pertenece al lenguaje</text>
<polygon fill="none" stroke="black" points="280.5,-278 280.5,-299 317.5,-299 317.5,-278 280.5,-278"/>
<text text-anchor="start" x="292" y="-284.8" font-family="Times New Roman,serif" font-size="14.00">19</text>
<polygon fill="none" stroke="black" points="317.5,-278 317.5,-299 374.5,-299 374.5,-278 317.5,-278"/>
<text text-anchor="start" x="342.5" y="-284.8" font-family="Times New Roman,serif" font-size="14.00">3</text>
<polygon fill="none" stroke="black" points="9.5,-257 9.5,-278 54.5,-278 54.5,-257 9.5,-257"/>
<text text-anchor="start" x="12.5" y="-263.8" font-family="Times New Roman,serif" font-size="14.00">Lexico</text>
<polygon fill="none" stroke="black" points="54.5,-257 54.5,-278 280.5,-278 280.5,-257 54.5,-257"/>
<text text-anchor="start" x="57.5" y="-263.8" font-family="Times New Roman,serif" font-size="14.00">El caracter: &quot;°&quot; no pertenece al lenguaje</text>
<polygon fill="none" stroke="black" points="280.5,-257 280.5,-278 317.5,-278 317.5,-257 280.5,-257"/>
<text text-anchor="start" x="292" y="-263.8" font-family="Times New Roman,serif" font-size="14.00">19</text>
<polygon fill="none" stroke="black" points="317.5,-257 317.5,-278 374.5,-278 374.5,-257 317.5,-257"/>
<text text-anchor="start" x="342.5" y="-263.8" font-family="Times New Roman,serif" font-size="14.00">4</text>
<polygon fill="none" stroke="black" points="9.5,-236 9.5,-257 54.5,-257 54.5,-236 9.5,-236"/>
<text text-anchor="start" x="12.5" y="-242.8" font-family="Times New Roman,serif" font-size="14.00">Lexico</text>
<polygon fill="none" stroke="black" points="54.5,-236 54.5,-257 280.5,-257 280.5,-236 54.5,-236"/>
<text text-anchor="start" x="57.5" y="-242.8" font-family="Times New Roman,serif" font-size="14.00">El caracter: &quot;°&quot; no pertenece al lenguaje</text>
<polygon fill="none" stroke="black" points="280.5,-236 280.5,-257 317.5,-257 317.5,-236 280.5,-236"/>
<text text-anchor="start" x="292" y="-242.8" font-family="Times New Roman,serif" font-size="14.00">19</text>
<polygon fill="none" stroke="black" points="317.5,-236 317.5,-257 374.5,-257 374.5,-236 317.5,-236"/>
<text text-anchor="start" x="342.5" y="-242.8" font-family="Times New Roman,serif" font-size="14.00">5</text>
<polygon fill="none" stroke="black" points="9.5,-215 9.5,-236 54.5,-236 54.5,-215 9.5,-215"/>
<text text-anchor="start" x="12.5" y="-221.8" font-family="Times New Roman,serif" font-size="14.00">Lexico</text>
<polygon fill="none" stroke="black" points="54.5,-215 54.5,-236 280.5,-236 280.5,-215 54.5,-215"/>
<text text-anchor="start" x="57.5" y="-221.8" font-family="Times New Roman,serif" font-size="14.00">El caracter: &quot;°&quot; no pertenece al lenguaje</text>
<polygon fill="none" stroke="black" points="280.5,-215 280.5,-236 317.5,-236 317.5,-215 280.5,-215"/>
<text text-anchor="start" x="292" y="-221.8" font-family="Times New Roman,serif" font-size="14.00">19</text>
<polygon fill="none" stroke="black" points="317.5,-215 317.5,-236 374.5,-236 374.5,-215 317.5,-215"/>
<text text-anchor="start" x="342.5" y="-221.8" font-family="Times New Roman,serif" font-size="14.00">6</text>
<polygon fill="none" stroke="black" points="9.5,-194 9.5,-215 54.5,-215 54.5,-194 9.5,-194"/>
<text text-anchor="start" x="12.5" y="-200.8" font-family="Times New Roman,serif" font-size="14.00">Lexico</text>
<polygon fill="none" stroke="black" points="54.5,-194 54.5,-215 280.5,-215 280.5,-194 54.5,-194"/>
<text text-anchor="start" x="57.5" y="-200.8" font-family="Times New Roman,serif" font-size="14.00">El caracter: &quot;°&quot; no pertenece al lenguaje</text>
<polygon fill="none" stroke="black" points="280.5,-194 280.5,-215 317.5,-215 317.5,-194 280.5,-194"/>
<text text-anchor="start" x="292" y="-200.8" font-family="Times New Roman,serif" font-size="14.00">19</text>
<polygon fill="none" stroke="black" points="317.5,-194 317.5,-215 374.5,-215 374.5,-194 317.5,-194"/>
<text text-anchor="start" x="342.5" y="-200.8" font-family="Times New Roman,serif" font-size="14.00">7</text>
<polygon fill="none" stroke="black" points="9.5,-173 9.5,-194 54.5,-194 54.5,-173 9.5,-173"/>
<text text-anchor="start" x="12.5" y="-179.8" font-family="Times New Roman,serif" font-size="14.00">Lexico</text>
<polygon fill="none" stroke="black" points="54.5,-173 54.5,-194 280.5,-194 280.5,-173 54.5,-173"/>
<text text-anchor="start" x="57.5" y="-179.8" font-family="Times New Roman,serif" font-size="14.00">El caracter: &quot;°&quot; no pertenece al lenguaje</text>
<polygon fill="none" stroke="black" points="280.5,-173 280.5,-194 317.5,-194 317.5,-173 280.5,-173"/>
<text text-anchor="start" x="292" y="-179.8" font-family="Times New Roman,serif" font-size="14.00">19</text>
<polygon fill="none" stroke="black" points="317.5,-173 317.5,-194 374.5,-194 374.5,-173 317.5,-173"/>
<text text-anchor="start" x="342.5" y="-179.8" font-family="Times New Roman,serif" font-size="14.00">8</text>
<polygon fill="none" stroke="black" points="9.5,-152 9.5,-173 54.5,-173 54.5,-152 9.5,-152"/>
<text text-anchor="start" x="12.5" y="-158.8" font-family="Times New Roman,serif" font-size="14.00">Lexico</text>
<polygon fill="none" stroke="black" points="54.5,-152 54.5,-173 280.5,-173 280.5,-152 54.5,-152"/>
<text text-anchor="start" x="57.5" y="-158.8" font-family="Times New Roman,serif" font-size="14.00">El caracter: &quot;°&quot; no pertenece al lenguaje</text>
<polygon fill="none" stroke="black" points="280.5,-152 280.5,-173 317.5,-173 317.5,-152 280.5,-152"/>
<text text-anchor="start" x="292" y="-158.8" font-family="Times New Roman,serif" font-size="14.00">19</text>
<polygon fill="none" stroke="black" points="317.5,-152 317.5,-173 374.5,-173 374.5,-152 317.5,-152"/>
<text text-anchor="start" x="342.5" y="-158.8" font-family="Times New Roman,serif" font-size="14.00">9</text>
<polygon fill="none" stroke="black" points="9.5,-131 9.5,-152 54.5,-152 54.5,-131 9.5,-131"/>
<text text-anchor="start" x="12.5" y="-137.8" font-family="Times New Roman,serif" font-size="14.00">Lexico</text>
<polygon fill="none" stroke="black" points="54.5,-131 54.5,-152 280.5,-152 280.5,-131 54.5,-131"/>
<text text-anchor="start" x="57.5" y="-137.8" font-family="Times New Roman,serif" font-size="14.00">El caracter: &quot;°&quot; no pertenece al lenguaje</text>
<polygon fill="none" stroke="black" points="280.5,-131 280.5,-152 317.5,-152 317.5,-131 280.5,-131"/>
<text text-anchor="start" x="292" y="-137.8" font-family="Times New Roman,serif" font-size="14.00">19</text>
<polygon fill="none" stroke="black" points="317.5,-131 317.5,-152 374.5,-152 374.5,-131 317.5,-131"/>
<text text-anchor="start" x="339" y="-137.8" font-family="Times New Roman,serif" font-size="14.00">10</text>
<polygon fill="none" stroke="black" points="9.5,-110 9.5,-131 54.5,-131 54.5,-110 9.5,-110"/>
<text text-anchor="start" x="12.5" y="-116.8" font-family="Times New Roman,serif" font-size="14.00">Lexico</text>
<polygon fill="none" stroke="black" points="54.5,-110 54.5,-131 280.5,-131 280.5,-110 54.5,-110"/>
<text text-anchor="start" x="57.5" y="-116.8" font-family="Times New Roman,serif" font-size="14.00">El caracter: &quot;°&quot; no pertenece al lenguaje</text>
<polygon fill="none" stroke="black" points="280.5,-110 280.5,-131 317.5,-131 317.5,-110 280.5,-110"/>
<text text-anchor="start" x="292" y="-116.8" font-family="Times New Roman,serif" font-size="14.00">19</text>
<polygon fill="none" stroke="black" points="317.5,-110 317.5,-131 374.5,-131 374.5,-110 317.5,-110"/>
<text text-anchor="start" x="339" y="-116.8" font-family="Times New Roman,serif" font-size="14.00">11</text>
<polygon fill="none" stroke="black" points="9.5,-89 9.5,-110 54.5,-110 54.5,-89 9.5,-89"/>
<text text-anchor="start" x="12.5" y="-95.8" font-family="Times New Roman,serif" font-size="14.00">Lexico</text>
<polygon fill="none" stroke="black" points="54.5,-89 54.5,-110 280.5,-110 280.5,-89 54.5,-89"/>
<text text-anchor="start" x="57.5" y="-95.8" font-family="Times New Roman,serif" font-size="14.00">El caracter: &quot;°&quot; no pertenece al lenguaje</text>
<polygon fill="none" stroke="black" points="280.5,-89 280.5,-110 317.5,-110 317.5,-89 280.5,-89"/>
<text text-anchor="start" x="292" y="-95.8" font-family="Times New Roman,serif" font-size="14.00">19</text>
<polygon fill="none" stroke="black" points="317.5,-89 317.5,-110 374.5,-110 374.5,-89 317.5,-89"/>
<text text-anchor="start" x="339" y="-95.8" font-family="Times New Roman,serif" font-size="14.00">12</text>
<polygon fill="none" stroke="black" points="9.5,-68 9.5,-89 54.5,-89 54.5,-68 9.5,-68"/>
<text text-anchor="start" x="12.5" y="-74.8" font-family="Times New Roman,serif" font-size="14.00">Lexico</text>
<polygon fill="none" stroke="black" points="54.5,-68 54.5,-89 280.5,-89 280.5,-68 54.5,-68"/>
<text text-anchor="start" x="57.5" y="-74.8" font-family="Times New Roman,serif" font-size="14.00">El caracter: &quot;°&quot; no pertenece al lenguaje</text>
<polygon fill="none" stroke="black" points="280.5,-68 280.5,-89 317.5,-89 317.5,-68 280.5,-68"/>
<text text-anchor="start" x="292" y="-74.8" font-family="Times New Roman,serif" font-size="14.00">19</text>
<polygon fill="none" stroke="black" points="317.5,-68 317.5,-89 374.5,-89 374.5,-68 317.5,-68"/>
<text text-anchor="start" x="339" y="-74.8" font-family="Times New Roman,serif" font-size="14.00">13</text>
<polygon fill="none" stroke="black" points="9.5,-47 9.5,-68 54.5,-68 54.5,-47 9.5,-47"/>
<text text-anchor="start" x="12.5" y="-53.8" font-family="Times New Roman,serif" font-size="14.00">Lexico</text>
<polygon fill="none" stroke="black" points="54.5,-47 54.5,-68 280.5,-68 280.5,-47 54.5,-47"/>
<text text-anchor="start" x="57.5" y="-53.8" font-family="Times New Roman,serif" font-size="14.00">El caracter: &quot;¿&quot; no pertenece al lenguaje</text>
<polygon fill="none" stroke="black" points="280.5,-47 280.5,-68 317.5,-68 317.5,-47 280.5,-47"/>
<text text-anchor="start" x="292" y="-53.8" font-family="Times New Roman,serif" font-size="14.00">19</text>
<polygon fill="none" stroke="black" points="317.5,-47 317.5,-68 374.5,-68 374.5,-47 317.5,-47"/>
<text text-anchor="start" x="339" y="-53.8" font-family="Times New Roman,serif" font-size="14.00">14</text>
<polygon fill="none" stroke="black" points="9.5,-26 9.5,-47 54.5,-47 54.5,-26 9.5,-26"/>
<text text-anchor="start" x="12.5" y="-32.8" font-family="Times New Roman,serif" font-size="14.00">Lexico</text>
<polygon fill="none" stroke="black" points="54.5,-26 54.5,-47 280.5,-47 280.5,-26 54.5,-26"/>
<text text-anchor="start" x="57.5" y="-32.8" font-family="Times New Roman,serif" font-size="14.00">El caracter: &quot;¿&quot; no pertenece al lenguaje</text>
<polygon fill="none" stroke="black" points="280.5,-26 280.5,-47 317.5,-47 317.5,-26 280.5,-26"/>
<text text-anchor="start" x="292" y="-32.8" font-family="Times New Roman,serif" font-size="14.00">19</text>
<polygon fill="none" stroke="black" points="317.5,-26 317.5,-47 374.5,-47 374.5,-26 317.5,-26"/>
<text text-anchor="start" x="339" y="-32.8" font-family="Times New Roman,serif" font-size="14.00">15</text>
<polygon fill="none" stroke="black" points="9.5,-5 9.5,-26 54.5,-26 54.5,-5 9.5,-5"/>
<text text-anchor="start" x="12.5" y="-11.8" font-family="Times New Roman,serif" font-size="14.00">Lexico</text>
<polygon fill="none" stroke="black" points="54.5,-5 54.5,-26 280.5,-26 280.5,-5 54.5,-5"/>
<text text-anchor="start" x="57.5" y="-11.8" font-family="Times New Roman,serif" font-size="14.00">El caracter: &quot;¿&quot; no pertenece al lenguaje</text>
<polygon fill="none" stroke="black" points="280.5,-5 280.5,-26 317.5,-26 317.5,-5 280.5,-5"/>
<text text-anchor="start" x="292" y="-11.8" font-family="Times New Roman,serif" font-size="14.00">19</text>
<polygon fill="none" stroke="black" points="317.5,-5 317.5,-26 374.5,-26 374.5,-5 317.5,-5"/>
<text text-anchor="start" x="339" y="-11.8" font-family="Times New Roman,serif" font-size="14.00">16</text>
<polygon fill="none" stroke="black" points="8,-4 8,-384 375,-384 375,-4 8,-4"/>
</g>
</g>
</svg>
