<?xml version="1.0" encoding="UTF-8" standalone="no"?>
<!DOCTYPE svg PUBLIC "-//W3C//DTD SVG 1.1//EN"
 "http://www.w3.org/Graphics/SVG/1.1/DTD/svg11.dtd">
<!-- Generated by graphviz version 7.1.0 (20230121.1956)
 -->
<!-- Title: G Pages: 1 -->
<svg width="293pt" height="123pt"
 viewBox="0.00 0.00 293.00 123.00" xmlns="http://www.w3.org/2000/svg" xmlns:xlink="http://www.w3.org/1999/xlink">
<g id="graph0" class="graph" transform="scale(1 1) rotate(0) translate(4 119)">
<title>G</title>
<polygon fill="white" stroke="none" points="-4,4 -4,-119 289,-119 289,4 -4,4"/>
<!-- table -->
<g id="node1" class="node">
<title>table</title>
<polygon fill="none" stroke="black" points="9.5,-88.5 9.5,-109.5 87.5,-109.5 87.5,-88.5 9.5,-88.5"/>
<text text-anchor="start" x="12.5" y="-95.3" font-family="Times New Roman,serif" font-size="14.00">Identificador</text>
<polygon fill="none" stroke="black" points="87.5,-88.5 87.5,-109.5 139.5,-109.5 139.5,-88.5 87.5,-88.5"/>
<text text-anchor="start" x="99.5" y="-95.3" font-family="Times New Roman,serif" font-size="14.00">Tipo</text>
<polygon fill="none" stroke="black" points="139.5,-88.5 139.5,-109.5 182.5,-109.5 182.5,-88.5 139.5,-88.5"/>
<text text-anchor="start" x="147" y="-95.3" font-family="Times New Roman,serif" font-size="14.00">Tipo</text>
<polygon fill="none" stroke="black" points="182.5,-88.5 182.5,-109.5 219.5,-109.5 219.5,-88.5 182.5,-88.5"/>
<text text-anchor="start" x="185.5" y="-95.3" font-family="Times New Roman,serif" font-size="14.00">Linea</text>
<polygon fill="none" stroke="black" points="219.5,-88.5 219.5,-109.5 276.5,-109.5 276.5,-88.5 219.5,-88.5"/>
<text text-anchor="start" x="222.5" y="-95.3" font-family="Times New Roman,serif" font-size="14.00">Columna</text>
<polygon fill="none" stroke="black" points="9.5,-67.5 9.5,-88.5 87.5,-88.5 87.5,-67.5 9.5,-67.5"/>
<text text-anchor="start" x="23.5" y="-74.3" font-family="Times New Roman,serif" font-size="14.00">metodo1</text>
<polygon fill="none" stroke="black" points="87.5,-67.5 87.5,-88.5 139.5,-88.5 139.5,-67.5 87.5,-67.5"/>
<text text-anchor="start" x="91" y="-74.3" font-family="Times New Roman,serif" font-size="14.00">Método</text>
<polygon fill="none" stroke="black" points="139.5,-67.5 139.5,-88.5 182.5,-88.5 182.5,-67.5 139.5,-67.5"/>
<text text-anchor="start" x="147" y="-74.3" font-family="Times New Roman,serif" font-size="14.00">Void</text>
<polygon fill="none" stroke="black" points="182.5,-67.5 182.5,-88.5 219.5,-88.5 219.5,-67.5 182.5,-67.5"/>
<text text-anchor="start" x="197.5" y="-74.3" font-family="Times New Roman,serif" font-size="14.00">6</text>
<polygon fill="none" stroke="black" points="219.5,-67.5 219.5,-88.5 276.5,-88.5 276.5,-67.5 219.5,-67.5"/>
<text text-anchor="start" x="244.5" y="-74.3" font-family="Times New Roman,serif" font-size="14.00">5</text>
<polygon fill="none" stroke="black" points="9.5,-46.5 9.5,-67.5 87.5,-67.5 87.5,-46.5 9.5,-46.5"/>
<text text-anchor="start" x="29" y="-53.3" font-family="Times New Roman,serif" font-size="14.00">figura1</text>
<polygon fill="none" stroke="black" points="87.5,-46.5 87.5,-67.5 139.5,-67.5 139.5,-46.5 87.5,-46.5"/>
<text text-anchor="start" x="91" y="-53.3" font-family="Times New Roman,serif" font-size="14.00">Método</text>
<polygon fill="none" stroke="black" points="139.5,-46.5 139.5,-67.5 182.5,-67.5 182.5,-46.5 139.5,-46.5"/>
<text text-anchor="start" x="147" y="-53.3" font-family="Times New Roman,serif" font-size="14.00">Void</text>
<polygon fill="none" stroke="black" points="182.5,-46.5 182.5,-67.5 219.5,-67.5 219.5,-46.5 182.5,-46.5"/>
<text text-anchor="start" x="194" y="-53.3" font-family="Times New Roman,serif" font-size="14.00">10</text>
<polygon fill="none" stroke="black" points="219.5,-46.5 219.5,-67.5 276.5,-67.5 276.5,-46.5 219.5,-46.5"/>
<text text-anchor="start" x="244.5" y="-53.3" font-family="Times New Roman,serif" font-size="14.00">5</text>
<polygon fill="none" stroke="black" points="9.5,-25.5 9.5,-46.5 87.5,-46.5 87.5,-25.5 9.5,-25.5"/>
<text text-anchor="start" x="45" y="-32.3" font-family="Times New Roman,serif" font-size="14.00">n</text>
<polygon fill="none" stroke="black" points="87.5,-25.5 87.5,-46.5 139.5,-46.5 139.5,-25.5 87.5,-25.5"/>
<text text-anchor="start" x="90.5" y="-32.3" font-family="Times New Roman,serif" font-size="14.00">Variable</text>
<polygon fill="none" stroke="black" points="139.5,-25.5 139.5,-46.5 182.5,-46.5 182.5,-25.5 139.5,-25.5"/>
<text text-anchor="start" x="142.5" y="-32.3" font-family="Times New Roman,serif" font-size="14.00">Entero</text>
<polygon fill="none" stroke="black" points="182.5,-25.5 182.5,-46.5 219.5,-46.5 219.5,-25.5 182.5,-25.5"/>
<text text-anchor="start" x="194" y="-32.3" font-family="Times New Roman,serif" font-size="14.00">10</text>
<polygon fill="none" stroke="black" points="219.5,-25.5 219.5,-46.5 276.5,-46.5 276.5,-25.5 219.5,-25.5"/>
<text text-anchor="start" x="241" y="-32.3" font-family="Times New Roman,serif" font-size="14.00">13</text>
<polygon fill="none" stroke="black" points="9.5,-4.5 9.5,-25.5 87.5,-25.5 87.5,-4.5 9.5,-4.5"/>
<text text-anchor="start" x="13" y="-11.3" font-family="Times New Roman,serif" font-size="14.00">cadenafigura</text>
<polygon fill="none" stroke="black" points="87.5,-4.5 87.5,-25.5 139.5,-25.5 139.5,-4.5 87.5,-4.5"/>
<text text-anchor="start" x="90.5" y="-11.3" font-family="Times New Roman,serif" font-size="14.00">Variable</text>
<polygon fill="none" stroke="black" points="139.5,-4.5 139.5,-25.5 182.5,-25.5 182.5,-4.5 139.5,-4.5"/>
<text text-anchor="start" x="144" y="-11.3" font-family="Times New Roman,serif" font-size="14.00">String</text>
<polygon fill="none" stroke="black" points="182.5,-4.5 182.5,-25.5 219.5,-25.5 219.5,-4.5 182.5,-4.5"/>
<text text-anchor="start" x="194" y="-11.3" font-family="Times New Roman,serif" font-size="14.00">11</text>
<polygon fill="none" stroke="black" points="219.5,-4.5 219.5,-25.5 276.5,-25.5 276.5,-4.5 219.5,-4.5"/>
<text text-anchor="start" x="241" y="-11.3" font-family="Times New Roman,serif" font-size="14.00">15</text>
<polygon fill="none" stroke="black" points="8,-4 8,-111 277,-111 277,-4 8,-4"/>
</g>
</g>
</svg>
