<?xml version="1.0" encoding="UTF-8" standalone="no"?>
<!DOCTYPE svg PUBLIC "-//W3C//DTD SVG 1.1//EN"
 "http://www.w3.org/Graphics/SVG/1.1/DTD/svg11.dtd">
<!-- Generated by graphviz version 7.1.0 (20230121.1956)
 -->
<!-- Title: G Pages: 1 -->
<svg width="293pt" height="60pt"
 viewBox="0.00 0.00 293.00 60.00" xmlns="http://www.w3.org/2000/svg" xmlns:xlink="http://www.w3.org/1999/xlink">
<g id="graph0" class="graph" transform="scale(1 1) rotate(0) translate(4 56)">
<title>G</title>
<polygon fill="white" stroke="none" points="-4,4 -4,-56 289,-56 289,4 -4,4"/>
<!-- table -->
<g id="node1" class="node">
<title>table</title>
<polygon fill="none" stroke="black" points="9.5,-26 9.5,-47 87.5,-47 87.5,-26 9.5,-26"/>
<text text-anchor="start" x="12.5" y="-32.8" font-family="Times New Roman,serif" font-size="14.00">Identificador</text>
<polygon fill="none" stroke="black" points="87.5,-26 87.5,-47 139.5,-47 139.5,-26 87.5,-26"/>
<text text-anchor="start" x="99.5" y="-32.8" font-family="Times New Roman,serif" font-size="14.00">Tipo</text>
<polygon fill="none" stroke="black" points="139.5,-26 139.5,-47 182.5,-47 182.5,-26 139.5,-26"/>
<text text-anchor="start" x="147" y="-32.8" font-family="Times New Roman,serif" font-size="14.00">Tipo</text>
<polygon fill="none" stroke="black" points="182.5,-26 182.5,-47 219.5,-47 219.5,-26 182.5,-26"/>
<text text-anchor="start" x="185.5" y="-32.8" font-family="Times New Roman,serif" font-size="14.00">Linea</text>
<polygon fill="none" stroke="black" points="219.5,-26 219.5,-47 276.5,-47 276.5,-26 219.5,-26"/>
<text text-anchor="start" x="222.5" y="-32.8" font-family="Times New Roman,serif" font-size="14.00">Columna</text>
<polygon fill="none" stroke="black" points="9.5,-5 9.5,-26 87.5,-26 87.5,-5 9.5,-5"/>
<text text-anchor="start" x="34.5" y="-11.8" font-family="Times New Roman,serif" font-size="14.00">edad</text>
<polygon fill="none" stroke="black" points="87.5,-5 87.5,-26 139.5,-26 139.5,-5 87.5,-5"/>
<text text-anchor="start" x="90.5" y="-11.8" font-family="Times New Roman,serif" font-size="14.00">Variable</text>
<polygon fill="none" stroke="black" points="139.5,-5 139.5,-26 182.5,-26 182.5,-5 139.5,-5"/>
<text text-anchor="start" x="142.5" y="-11.8" font-family="Times New Roman,serif" font-size="14.00">Entero</text>
<polygon fill="none" stroke="black" points="182.5,-5 182.5,-26 219.5,-26 219.5,-5 182.5,-5"/>
<text text-anchor="start" x="197.5" y="-11.8" font-family="Times New Roman,serif" font-size="14.00">1</text>
<polygon fill="none" stroke="black" points="219.5,-5 219.5,-26 276.5,-26 276.5,-5 219.5,-5"/>
<text text-anchor="start" x="244.5" y="-11.8" font-family="Times New Roman,serif" font-size="14.00">4</text>
<polygon fill="none" stroke="black" points="8,-4 8,-48 277,-48 277,-4 8,-4"/>
</g>
</g>
</svg>
