<?xml version="1.0" encoding="UTF-8" standalone="no"?>
<!DOCTYPE svg PUBLIC "-//W3C//DTD SVG 1.1//EN"
 "http://www.w3.org/Graphics/SVG/1.1/DTD/svg11.dtd">
<!-- Generated by graphviz version 7.1.0 (20230121.1956)
 -->
<!-- Title: G Pages: 1 -->
<svg width="256pt" height="60pt"
 viewBox="0.00 0.00 256.00 60.00" xmlns="http://www.w3.org/2000/svg" xmlns:xlink="http://www.w3.org/1999/xlink">
<g id="graph0" class="graph" transform="scale(1 1) rotate(0) translate(4 56)">
<title>G</title>
<polygon fill="white" stroke="none" points="-4,4 -4,-56 252,-56 252,4 -4,4"/>
<!-- table -->
<g id="node1" class="node">
<title>table</title>
<polygon fill="none" stroke="black" points="9,-26 9,-47 71,-47 71,-26 9,-26"/>
<text text-anchor="start" x="26" y="-32.8" font-family="Times New Roman,serif" font-size="14.00">Tipo</text>
<polygon fill="none" stroke="black" points="71,-26 71,-47 145,-47 145,-26 71,-26"/>
<text text-anchor="start" x="74" y="-32.8" font-family="Times New Roman,serif" font-size="14.00">Descripcion</text>
<polygon fill="none" stroke="black" points="145,-26 145,-47 182,-47 182,-26 145,-26"/>
<text text-anchor="start" x="148" y="-32.8" font-family="Times New Roman,serif" font-size="14.00">Linea</text>
<polygon fill="none" stroke="black" points="182,-26 182,-47 239,-47 239,-26 182,-26"/>
<text text-anchor="start" x="185" y="-32.8" font-family="Times New Roman,serif" font-size="14.00">Columna</text>
<polygon fill="none" stroke="black" points="9,-5 9,-26 71,-26 71,-5 9,-5"/>
<text text-anchor="start" x="12" y="-11.8" font-family="Times New Roman,serif" font-size="14.00">Sintáctico</text>
<polygon fill="none" stroke="black" points="71,-5 71,-26 145,-26 145,-5 71,-5"/>
<text text-anchor="start" x="92.5" y="-11.8" font-family="Times New Roman,serif" font-size="14.00">falta ;</text>
<polygon fill="none" stroke="black" points="145,-5 145,-26 182,-26 182,-5 145,-5"/>
<text text-anchor="start" x="156.5" y="-11.8" font-family="Times New Roman,serif" font-size="14.00">13</text>
<polygon fill="none" stroke="black" points="182,-5 182,-26 239,-26 239,-5 182,-5"/>
<text text-anchor="start" x="203.5" y="-11.8" font-family="Times New Roman,serif" font-size="14.00">16</text>
<polygon fill="none" stroke="black" points="8,-4 8,-48 240,-48 240,-4 8,-4"/>
</g>
</g>
</svg>
